<?xml version="1.0" encoding="UTF-8"?>
<svg version="1.1" xmlns="http://www.w3.org/2000/svg" width="500" height="500">
<path d="M0 0 C2.4375 0.0625 2.4375 0.0625 5 1 C14.6682508 14.56947481 13.31013636 40.3057403 11 56 C8.92431184 67.73837442 4.76262042 77.61272164 -1 88 C-1.33531738 88.61552734 -1.67063477 89.23105469 -2.01611328 89.86523438 C-5.98585536 97.12576116 -5.98585536 97.12576116 -8 100 C-8.66 100 -9.32 100 -10 100 C-10.3403125 100.8353125 -10.3403125 100.8353125 -10.6875 101.6875 C-13.11420254 105.96311877 -16.43250373 109.13916819 -21 111 C-21 111.66 -21 112.32 -21 113 C-24.4902758 116.20797408 -28.27128269 119.07484332 -32 122 C-32.80566406 122.63550781 -33.61132812 123.27101563 -34.44140625 123.92578125 C-39.72136038 128 -39.72136038 128 -42 128 C-42 128.66 -42 129.32 -42 130 C-43.32 130.33 -44.64 130.66 -46 131 C-46 131.66 -46 132.32 -46 133 C-47.65 133.66 -49.3 134.32 -51 135 C-51 135.66 -51 136.32 -51 137 C-52.66459321 138.42764044 -54.38354073 139.79220317 -56.125 141.125 C-60.9546401 144.9700167 -64.65765481 148.82430091 -68 154 C-64.51853549 156.28549946 -61.57733859 157.53735495 -57.5 158.3515625 C-56.45424805 158.56272705 -55.40849609 158.7738916 -54.33105469 158.99145508 C-53.23180664 159.2005249 -52.13255859 159.40959473 -51 159.625 C-49.87239258 159.84373779 -48.74478516 160.06247559 -47.58300781 160.2878418 C-36.59799515 162.3612193 -26.16415961 163.19355751 -14.97265625 162.83984375 C-9.14580667 163.15377389 -4.56935953 165.66265577 0.5 168.375 C5.36703412 170.92825171 9.93412074 172.63806492 15.3125 173.9375 C27.98758885 177.35328118 35.27570395 188.3247211 42 199 C46.24823344 206.59908723 47.68268272 213.97379616 48.34765625 222.5546875 C49.10354216 226.54685143 50.6081707 228.753623 53 232 C56.67827132 238.46085969 56.32316649 245.09597443 54.66796875 252.15234375 C54 254 54 254 52 256 C42.65878063 259.08076524 30.76794122 261.64922914 21.5 257.25 C17.20892225 254.67715255 13.74858219 251.9455775 10.625 248 C7.19063872 244.07501568 4.03775366 241.42411918 -1.23828125 240.6875 C-5.85719605 240.56329389 -9.68671429 241.23044689 -14 243 C-14 243.66 -14 244.32 -14 245 C-15.11375 245.99 -15.11375 245.99 -16.25 247 C-22.55583747 253.28787212 -23.41395993 260.96962321 -23.5 269.5 C-23.42743147 276.71149815 -22.6647444 282.65578675 -19 289 C-18.63777344 289.70125 -18.27554687 290.4025 -17.90234375 291.125 C-15.22358009 295.91953292 -11.85812046 299.1497379 -7.57421875 302.5546875 C-7.05472656 303.03164063 -6.53523438 303.50859375 -6 304 C-6 304.66 -6 305.32 -6 306 C-5.15953125 306.27199219 -4.3190625 306.54398437 -3.453125 306.82421875 C0.15739889 308.05359397 3.70876314 309.39892549 7.25 310.8125 C7.90170166 311.07240723 8.55340332 311.33231445 9.22485352 311.60009766 C14.6298293 313.78765159 19.85047019 316.2616618 25 319 C24.51029997 323.88259738 23.18083148 326.71355197 20.25 330.625 C19.57453125 331.54539062 18.8990625 332.46578125 18.203125 333.4140625 C14.34414915 337.94356962 10.78696036 340.27208826 5.1875 342.1875 C-3.36598062 345.63192488 -7.40958554 351.72483808 -12.5625 359.0625 C-25.60273829 377.18103069 -38.9986073 387.96470944 -60.84765625 392.9921875 C-64.04205335 393.72776296 -66.99671878 394.6584941 -70 396 C-70 396.66 -70 397.32 -70 398 C-70.66 398 -71.32 398 -72 398 C-72 398.66 -72 399.32 -72 400 C-73.42578125 401.25390625 -73.42578125 401.25390625 -75.3125 402.5625 C-75.92738281 402.99691406 -76.54226563 403.43132812 -77.17578125 403.87890625 C-81.16937667 406.33321436 -84.63111815 406.07689585 -89.203125 405.9921875 C-90.67447179 405.9746305 -92.14582647 405.9577263 -93.6171875 405.94140625 C-95.9139667 405.91084075 -98.21033548 405.87581526 -100.50683594 405.82861328 C-114.1210164 405.56394267 -126.37487729 407.35960857 -139.4375 411.4375 C-163.3966298 418.75556057 -163.3966298 418.75556057 -175.30859375 419.46484375 C-176.59064697 419.5417041 -177.8727002 419.61856445 -179.19360352 419.69775391 C-180.6082132 419.77806622 -182.0228462 419.85796863 -183.4375 419.9375 C-184.16154022 419.97913269 -184.88558044 420.02076538 -185.63156128 420.06365967 C-199.43682261 420.85473109 -213.24855157 421.50679938 -227.0625 422.125 C-228.03033417 422.16938202 -228.99816833 422.21376404 -229.99533081 422.25949097 C-239.53369511 422.69366496 -249.07253458 423.08201299 -258.62109375 423.1796875 C-259.31413101 423.19315216 -260.00716827 423.20661682 -260.72120667 423.2204895 C-264.32757778 423.23086771 -266.93307782 422.97065442 -270 421 C-270 420.34 -270 419.68 -270 419 C-270.66 419 -271.32 419 -272 419 C-272.66 418.01 -273.32 417.02 -274 416 C-276.46934464 414.87088154 -276.46934464 414.87088154 -279.3125 414 C-283.50923903 412.62589718 -287.80463801 411.19536199 -291 408 C-290.99084066 404.50113323 -290.86654204 401.01218205 -290.7421875 397.515625 C-291.01837009 393.74949876 -291.89731121 392.06045803 -294 389 C-294 388.34 -294 387.68 -294 387 C-294.66 387 -295.32 387 -296 387 C-300.31963577 382.34808456 -303.73015908 378.02221832 -304.3125 371.5 C-304 368 -304 368 -303 365.3125 C-299.65614504 354.23598044 -303.39744174 344.48436084 -307.33569336 334.14306641 C-313.3572858 314.7172897 -308.90657849 290.10367913 -304 271 C-303.79713379 270.20271484 -303.59426758 269.40542969 -303.38525391 268.58398438 C-302.24771284 264.19347498 -301.00302627 259.84052278 -299.71972656 255.49072266 C-298.8842345 252.59937598 -298.09303418 249.6975198 -297.3046875 246.79296875 C-292.3450648 228.56256522 -287.18697442 214.24896795 -275.74316406 198.9909668 C-269.45722097 190.05464853 -266.80082808 181.53146644 -264.56219482 170.90524292 C-263.59887014 166.35546598 -262.53564236 161.82906064 -261.4765625 157.30078125 C-261.16593369 155.9629232 -261.16593369 155.9629232 -260.84902954 154.59803772 C-255.60402652 132.33014753 -247.24876782 111.69579871 -234 93 C-233.49082031 92.24332031 -232.98164063 91.48664063 -232.45703125 90.70703125 C-231.36167248 89.09772116 -230.19031253 87.54040445 -229 86 C-228.34 86 -227.68 86 -227 86 C-227 85.34 -227 84.68 -227 84 C-226.34 84 -225.68 84 -225 84 C-224.77441406 83.43023437 -224.54882812 82.86046875 -224.31640625 82.2734375 C-216.83637683 69.35540449 -195.31874775 59.44787503 -181.37890625 55.5078125 C-160.48582262 51.04787675 -139.35980591 53.2282589 -121.1875 64.5 C-101.63751562 77.43178853 -92.38069361 96.90954071 -87.52099609 119.19677734 C-86.88352813 122.36464105 -86.29752099 125.54184612 -85.70703125 128.71875 C-84.21417082 135.64694206 -81.89067555 141.75999049 -77 147 C-76.59007812 146.4946875 -76.18015625 145.989375 -75.7578125 145.46875 C-75.21898437 144.8190625 -74.68015625 144.169375 -74.125 143.5 C-73.59132813 142.8503125 -73.05765625 142.200625 -72.5078125 141.53125 C-72.01023437 141.0259375 -71.51265625 140.520625 -71 140 C-70.34 140 -69.68 140 -69 140 C-69 139.34 -69 138.68 -69 138 C-68.34 138 -67.68 138 -67 138 C-67 137.34 -67 136.68 -67 136 C-66.34 136 -65.68 136 -65 136 C-65 135.34 -65 134.68 -65 134 C-60.6253571 129.34781178 -55.22082141 125.54191595 -50.1875 121.625 C-49.62458252 121.18414062 -49.06166504 120.74328125 -48.48168945 120.2890625 C-45.9906904 118.37434772 -44.00512875 117.00170958 -41 116 C-41 115.34 -41 114.68 -41 114 C-39.3203125 112.4921875 -39.3203125 112.4921875 -37.125 110.875 C-36.40570313 110.33617187 -35.68640625 109.79734375 -34.9453125 109.2421875 C-33 108 -33 108 -31 108 C-31 107.34 -31 106.68 -31 106 C-29.28515625 104.34375 -29.28515625 104.34375 -27.0625 102.5 C-24.07954821 100.11073001 -24.07954821 100.11073001 -22 97 C-21.34 97 -20.68 97 -20 97 C-19.74605469 96.43667969 -19.49210937 95.87335938 -19.23046875 95.29296875 C-17.83950839 92.70092517 -16.14881563 90.6106003 -14.3125 88.3125 C-4.27389233 74.6118957 1.33349637 55.89441811 2 39 C2.03996094 38.21753906 2.07992188 37.43507812 2.12109375 36.62890625 C2.38664217 26.86609672 0.75773293 17.30964752 -2.51171875 8.12109375 C-3.07720915 5.66460343 -2.89588216 4.34117272 -2 2 C-1.34 1.34 -0.68 0.68 0 0 Z " fill="#416037" transform="translate(378,22)"/>
<path d="M0 0 C1.65 0 3.3 0 5 0 C5 0.66 5 1.32 5 2 C6.32 2.33 7.64 2.66 9 3 C9.74738785 6.98606855 10.08138565 10.28695634 9.5 14.3125 C8.67256047 17.8145683 8.67256047 17.8145683 10 20 C13.07804311 20.85959984 16.15046524 21.5826358 19.27734375 22.23632812 C24.24103497 23.41142595 27.1035622 24.76131053 30 29 C30.77430232 32.63099159 30.9285766 36.23390921 31.0625 39.9375 C31.34335141 46.91274416 31.58271222 51.46283644 36 57 C36 57.66 36 58.32 36 59 C44.38768936 63.28719509 44.38768936 63.28719509 53.375 65.9375 C57 67 57 67 58.57421875 69.0703125 C60.60139621 73.23574564 61.78468431 77.58340707 63.01757812 82.02929688 C65.65402346 91.03075263 70.86217671 97.34981526 79 102 C82.20055823 103.73853648 85.42504902 105.43125166 88.6484375 107.12695312 C91.52687885 108.6496486 94.2878446 110.1918964 97 112 C97.625 114.3125 97.625 114.3125 97 117 C92.07841397 121.50272764 87.51993471 123.00944303 81 124 C81 124.66 81 125.32 81 126 C80.38898438 126.57234375 79.77796875 127.1446875 79.1484375 127.734375 C76.58347159 130.43924814 75.80158294 132.72859573 74.625 136.25 C72.58443125 141.8426699 70.31820472 146.79977901 66 151 C65.01 151.33 64.02 151.66 63 152 C63 152.66 63 153.32 63 154 C59.7 154 56.4 154 53 154 C53 153.34 53 152.68 53 152 C51.68 152 50.36 152 49 152 C48.7421875 151.41734375 48.484375 150.8346875 48.21875 150.234375 C46.02298089 146.2087983 42.92380816 143.34266836 39 141 C35.57559437 140.44061556 32.43242884 140.55687906 29 141 C27.8441114 145.46777452 27.8441114 145.46777452 28.82421875 149.84765625 C29.19160156 150.43417969 29.55898438 151.02070313 29.9375 151.625 C31.95521242 154.92671123 32.6418028 156.25615034 32 160 C30 162 30 162 26.69140625 162.3984375 C20.19704215 161.69745852 16.98869614 156.82980505 13 152 C7.13348096 143.62786298 3.79813977 136.35677088 5 126 C6.231826 122.31118051 8.17089566 119.75373122 11.0625 117.125 C14.8217256 115.68529658 18.3393351 115.56956031 22.3359375 115.31640625 C25.67273058 114.92010091 28.12459598 113.69575109 31 112 C31.66 112 32.32 112 33 112 C33 111.34 33 110.68 33 110 C33.66 110 34.32 110 35 110 C36.77785883 104.14352386 37.40125479 100.00537768 36 94 C34.35380651 91.60371845 34.35380651 91.60371845 32 90 C30.88625 89.13375 30.88625 89.13375 29.75 88.25 C26.11447841 86.59749019 22.88797013 86.31253966 19 87 C12.63924736 90.30269849 9.08995047 94.72529234 6.7265625 101.46484375 C5.16865793 106.90075808 4.09787158 112.45613783 3 118 C1.68 118 0.36 118 -1 118 C-7.48653241 106.36897637 -9.49974428 94.29841456 -7.375 81.125 C-6.08302342 78.1886896 -5.0277255 76.8320007 -2.875 74.5625 C-0.41108515 71.83090057 0.01196075 70.94295641 0.8125 67.125 C0.48179004 62.41238305 -2.35846027 59.41913121 -5.37109375 55.98046875 C-8.44826845 52.23915563 -8.38342821 48.67782418 -8 44 C-7.10546875 41.9765625 -7.10546875 41.9765625 -6 39.9375 C-4.09460718 36.39891333 -3.30446394 34.08627435 -4 30 C-5.01620103 28.25340448 -6.03417761 26.50728065 -7.09765625 24.7890625 C-8.62341563 21.76396381 -8.42000965 19.3000758 -8 16 C-6.5 12.5625 -6.5 12.5625 -5 10 C-4.34 10 -3.68 10 -3 10 C-2.87625 9.46375 -2.7525 8.9275 -2.625 8.375 C-1.87793984 5.5361714 -0.94696636 2.77776798 0 0 Z " fill="#507045" transform="translate(279,234)"/>
<path d="M0 0 C1.66762272 1.66762272 1.44753454 3.89783646 1.75 6.1875 C2.50487913 11.08840757 3.79740202 15.3323661 5.625 19.9375 C9.55331829 30.51374154 8.38654503 39.39170473 5.6796875 50.12890625 C4.13362324 56.65969495 4.84497054 62.1336171 8 68 C10.56197123 70.81356892 10.56197123 70.81356892 13 73 C13 73.66 13 74.32 13 75 C13.62519531 75.24878906 14.25039063 75.49757813 14.89453125 75.75390625 C18.19472543 77.7070824 18.44166935 80.02859101 19.41015625 83.609375 C20.4413146 89.53682831 20.5886566 95.50755786 20.7890625 101.51171875 C20.93019624 105.40617974 21.37206481 109.15518371 22 113 C22.66 113 23.32 113 24 113 C24.28875 113.639375 24.5775 114.27875 24.875 114.9375 C25.82823451 117.15206079 25.82823451 117.15206079 28 118 C28 118.66 28 119.32 28 120 C28.8971875 120.4021875 28.8971875 120.4021875 29.8125 120.8125 C32.07100952 122.03854802 33.47062652 122.93534581 35 125 C35.4375 127.5 35.4375 127.5 35 130 C32.61400421 132.88307825 30.98811798 133.0011882 27.25 133.375 C22.73624517 133.22227897 19.12520725 131.76794596 15 130 C15 129.34 15 128.68 15 128 C8.27773401 127.89107439 4.61117714 129.42302269 -0.21484375 134.0859375 C-2.59548774 136.63848794 -4.7967841 139.29319189 -7 142 C-10.41964056 144.27976038 -11.58005755 144.2276203 -15.5859375 144.16015625 C-16.68164062 144.14919922 -17.77734375 144.13824219 -18.90625 144.12695312 C-20.0509375 144.10568359 -21.195625 144.08441406 -22.375 144.0625 C-24.63274665 144.02794265 -26.89056675 143.99783204 -29.1484375 143.97265625 C-30.15052246 143.95468994 -31.15260742 143.93672363 -32.18505859 143.91821289 C-34.90910024 143.99735894 -37.35115961 144.38157364 -40 145 C-40 145.66 -40 146.32 -40 147 C-42.65172446 149.65172446 -44.33014001 150.8906351 -48.0625 151.5 C-51 151 -51 151 -53.375 149.625 C-55.91582246 145.52059448 -55.72237149 141.69892134 -55 137 C-54.12890625 134.9453125 -54.12890625 134.9453125 -53.0625 132.9375 C-50.47095948 127.84503226 -50.5454102 122.92166382 -50.36572266 117.328125 C-50.14282621 111.53539419 -49.11935821 106.42502385 -47 101 C-46.34 101 -45.68 101 -45 101 C-45.12181641 99.90365234 -45.12181641 99.90365234 -45.24609375 98.78515625 C-44.92089236 95.10470238 -43.63888425 94.0403087 -41.0625 91.4375 C-27.35460289 77.18390965 -27.35460289 77.18390965 -21.625 58.9375 C-21.73121141 56.49463752 -21.95377893 54.22154238 -22.453125 51.828125 C-23.75558069 45.21936833 -21.46684976 41.28511704 -18.4921875 35.390625 C-16.57708104 31.03902184 -15.99097722 26.97065233 -15.421875 22.28125 C-14.97434797 18.80048417 -14.31881021 15.42654831 -13.5625 12 C-13.33691406 10.96875 -13.11132812 9.9375 -12.87890625 8.875 C-11.72667112 5.10591085 -10.3495352 1.98965915 -7.125 -0.375 C-4.41611843 -1.17172987 -2.68146607 -0.79719262 0 0 Z " fill="#507044" transform="translate(243,277)"/>
<path d="M0 0 C3.61590808 2.42594003 7.08373629 5.01153765 10.29345703 7.95947266 C10.29345703 8.61947266 10.29345703 9.27947266 10.29345703 9.95947266 C10.86837891 10.20052734 11.44330078 10.44158203 12.03564453 10.68994141 C14.72960504 12.20471159 16.37383246 13.95913688 18.41845703 16.27197266 C19.10166016 17.03123047 19.78486328 17.79048828 20.48876953 18.57275391 C22.30237418 20.97126568 23.32123056 23.12798834 24.29345703 25.95947266 C24.95345703 25.95947266 25.61345703 25.95947266 26.29345703 25.95947266 C31.08706638 33.48645925 33.64293421 41.50569986 36.29345703 49.95947266 C36.79232422 51.38453125 36.79232422 51.38453125 37.30126953 52.83837891 C38.0987908 55.34711708 38.74635527 57.78986986 39.33642578 60.35009766 C41.36061475 69.03446393 43.17916338 75.7027259 48.91064453 82.73681641 C51.31341096 86.59889013 50.88028812 90.58152646 50.29345703 94.95947266 C49.31505859 94.92466797 48.33666016 94.88986328 47.32861328 94.85400391 C38.89045826 94.67976472 31.93810547 95.13714844 24.29345703 98.95947266 C22.29385691 98.99946466 20.29298461 99.00294065 18.29345703 98.95947266 C18.00470703 97.82509766 17.71595703 96.69072266 17.41845703 95.52197266 C17.04720703 94.34634766 16.67595703 93.17072266 16.29345703 91.95947266 C12.80434104 90.21491466 8.79603908 90.4971 4.94580078 90.24072266 C2.29345703 89.95947266 2.29345703 89.95947266 1.29345703 88.95947266 C1.37939453 87.03369141 1.37939453 87.03369141 1.66845703 84.64697266 C1.75869141 83.86708984 1.84892578 83.08720703 1.94189453 82.28369141 C2.29345703 79.95947266 2.29345703 79.95947266 2.80908203 77.97900391 C5.40887353 67.13955062 1.65102503 56.22456837 -1.24755859 45.83203125 C-1.70654297 43.95947266 -1.70654297 43.95947266 -1.70654297 41.95947266 C-2.36654297 41.95947266 -3.02654297 41.95947266 -3.70654297 41.95947266 C-4.69654297 39.48447266 -4.69654297 39.48447266 -5.70654297 36.95947266 C-11.12699628 36.28890111 -15.79046358 35.83598836 -20.62451172 38.67041016 C-23.0826138 40.68191466 -25.39889697 42.77881287 -27.70654297 44.95947266 C-31.73039862 47.64204309 -34.9782928 47.64676646 -39.70654297 46.95947266 C-42.76904297 45.14697266 -42.76904297 45.14697266 -44.70654297 42.95947266 C-44.70654297 41.96947266 -44.70654297 40.97947266 -44.70654297 39.95947266 C-45.36654297 39.95947266 -46.02654297 39.95947266 -46.70654297 39.95947266 C-47.03654297 39.29947266 -47.36654297 38.63947266 -47.70654297 37.95947266 C-54.68683667 37.68026091 -59.17769731 39.01588102 -65.08154297 42.58447266 C-69.6145942 45.17259988 -72.53217982 45.67317792 -77.70654297 44.95947266 C-79.70654297 43.77197266 -79.70654297 43.77197266 -80.70654297 41.95947266 C-81.04248047 39.61572266 -81.04248047 39.61572266 -80.70654297 36.95947266 C-78.80810547 34.72119141 -78.80810547 34.72119141 -76.33154297 32.64697266 C-75.51943359 31.94958984 -74.70732422 31.25220703 -73.87060547 30.53369141 C-71.70654297 28.95947266 -71.70654297 28.95947266 -69.70654297 28.95947266 C-69.47966797 28.40259766 -69.25279297 27.84572266 -69.01904297 27.27197266 C-67.33104261 24.29787678 -65.2397778 22.23938401 -62.70654297 19.95947266 C-62.04654297 19.95947266 -61.38654297 19.95947266 -60.70654297 19.95947266 C-60.70654297 19.29947266 -60.70654297 18.63947266 -60.70654297 17.95947266 C-59.06596437 16.76924897 -57.42099034 15.58267235 -55.72607422 14.47119141 C-53.55483362 12.92280513 -53.55483362 12.92280513 -51.34326172 10.57666016 C-37.598423 -3.06636494 -17.84394245 -10.87995461 0 0 Z " fill="#325127" transform="translate(233.70654296875,96.04052734375)"/>
<path d="M0 0 C1.49635986 0.11758667 1.49635986 0.11758667 3.02294922 0.23754883 C20.51706675 1.75378321 36.0930794 7.06161995 51.625 15.125 C51.625 15.785 51.625 16.445 51.625 17.125 C52.8934375 17.434375 52.8934375 17.434375 54.1875 17.75 C60.02990013 20.08696005 64.12943418 23.52957317 67 29.1875 C68.95270126 34.06097898 69.18803456 38.90163907 69.3515625 44.109375 C69.63063157 47.1871082 70.23725381 49.3740261 71.625 52.125 C72.305625 52.558125 72.98625 52.99125 73.6875 53.4375 C76.3525136 55.75864087 76.51621671 57.74743084 76.80078125 61.1875 C76.625 63.125 76.625 63.125 74.8125 65.5625 C71.2288003 68.1222855 68.57315157 68.76254848 64.19921875 68.734375 C58.445422 67.37232296 53.91616146 61.96225889 50.29956055 57.48364258 C47.50945238 54.22484709 47.50945238 54.22484709 43.60620117 52.72949219 C41.31681074 52.71416658 39.0924549 52.85709009 36.8125 53.0625 C30.18948697 53.39291787 26.10969564 53.12620643 20.515625 49.25 C17.13493993 47.23835269 14.45777628 47.5963412 10.625 48.125 C7.42788214 49.93670012 7.06985782 52.72362119 6.12451172 56.13012695 C5.12331305 60.12856017 4.46858368 64.19207171 3.76953125 68.25195312 C3.03626809 72.35586147 2.04377771 76.20501504 0.625 80.125 C-0.035 80.125 -0.695 80.125 -1.375 80.125 C-2.035 81.775 -2.695 83.425 -3.375 85.125 C-10.82364609 78.88424246 -11.71575824 70.09122864 -13.7265625 60.9453125 C-14.34057396 58.06892012 -14.34057396 58.06892012 -15.375 55.125 C-16.035 55.125 -16.695 55.125 -17.375 55.125 C-17.375 54.465 -17.375 53.805 -17.375 53.125 C-17.95507812 52.94324219 -18.53515625 52.76148438 -19.1328125 52.57421875 C-32.89662162 48.14527027 -32.89662162 48.14527027 -36.375 42.125 C-36.9119813 38.26024723 -36.61487863 34.8446359 -35.375 31.125 C-34.8246584 25.66022741 -34.8246584 25.66022741 -36.87890625 20.82421875 C-38.82405557 17.31482403 -38.67416843 14.79534082 -38.5625 10.8125 C-38.52189453 8.93111328 -38.52189453 8.93111328 -38.48046875 7.01171875 C-38.44566406 6.05910156 -38.41085937 5.10648438 -38.375 4.125 C-37.715 4.125 -37.055 4.125 -36.375 4.125 C-36.16875 3.485625 -35.9625 2.84625 -35.75 2.1875 C-34.375 0.125 -34.375 0.125 -31.71875 -0.4921875 C-21.1825382 -1.69843605 -10.53365459 -0.84844065 0 0 Z " fill="#507045" transform="translate(340.375,197.875)"/>
<path d="M0 0 C1 1 1 1 1.4375 4.3125 C1.92538729 7.51087224 2.49894062 9.24704494 4 12 C5.18078125 11.88140625 6.3615625 11.7628125 7.578125 11.640625 C9.13532248 11.50929509 10.69262009 11.37914858 12.25 11.25 C13.02730469 11.16878906 13.80460937 11.08757812 14.60546875 11.00390625 C20.3978234 10.55834051 20.3978234 10.55834051 23.4765625 12.81640625 C25.0888132 15.12729891 26.00638038 17.37400528 27 20 C29.85324437 21.42662219 31.83454549 21.31033868 35 21 C37.50078766 19.31342228 39.49967603 17.50032397 41.625 15.375 C43.92028288 13.07971712 45.66788713 12.05053892 48.875 11.5625 C53.2282709 12.17195793 54.30187177 13.54086124 57 17 C58.34813569 19.50720357 59.58564275 22.04883266 60.8046875 24.62109375 C62.56578927 28.12603158 64.43675521 31.2183776 68 33 C73.15369803 33.39222835 78.47556146 33.76493466 83 31 C83.99296309 29.97147625 84.97101507 28.92844373 85.9375 27.875 C88.26868294 25.39924758 88.69431151 25.04115037 92.25 24.5625 C95 25 95 25 97 26 C102.51288968 26.49470272 102.51288968 26.49470272 107.4375 24.5 C111.19942284 22.29789883 114.74007442 22.74941614 119 23 C119 23.66 119 24.32 119 25 C119.66 25 120.32 25 121 25 C121.44632321 28.04987525 121.53556707 30.18614808 119.8046875 32.81640625 C118.2613973 34.61174133 116.66362676 36.31598566 115 38 C113.88625 39.2065625 113.88625 39.2065625 112.75 40.4375 C111 42 111 42 109 42 C108.8453125 43.2684375 108.8453125 43.2684375 108.6875 44.5625 C107.9171146 48.41442701 106.63725486 51.44075031 105 55 C104.34 55 103.68 55 103 55 C102.731875 55.639375 102.46375 56.27875 102.1875 56.9375 C101 59 101 59 98 60 C96.60560336 60.06665376 95.20830125 60.08538199 93.8125 60.0625 C92.554375 60.041875 91.29625 60.02125 90 60 C89.67 58.35 89.34 56.7 89 55 C82.89019764 53.77955675 82.89019764 53.77955675 77 55 C76.29605388 56.31403276 75.63654342 57.6520257 75 59 C68.62871287 65.86138614 68.62871287 65.86138614 64.0625 66.25 C60.86963009 65.98935756 59.56121831 65.86452683 57 64 C55.54849154 60.83571156 54.40776479 57.69864924 53.2890625 54.41015625 C51.89240776 50.48933718 51.89240776 50.48933718 49.109375 47.5078125 C46.62669548 46.91013039 44.77297442 47.00397435 42.25 47.375 C41.45078125 47.48585937 40.6515625 47.59671875 39.828125 47.7109375 C39.22484375 47.80632812 38.6215625 47.90171875 38 48 C38 48.66 38 49.32 38 50 C36.1015625 51.7265625 36.1015625 51.7265625 33.625 53.625 C32.81289062 54.25664062 32.00078125 54.88828125 31.1640625 55.5390625 C29 57 29 57 27 57 C27 57.66 27 58.32 27 59 C22.71210757 61.14394622 17.48483236 60.15737609 13 59 C6.59409661 58.51653559 2.4916338 60.2287894 -3.1484375 63.08984375 C-4.21964844 63.63318359 -4.21964844 63.63318359 -5.3125 64.1875 C-6.29669922 64.70376953 -6.29669922 64.70376953 -7.30078125 65.23046875 C-9 66 -9 66 -11 66 C-11 66.66 -11 67.32 -11 68 C-16.27892008 71.33405479 -20.93646412 71.56709328 -27 71 C-27.66 70.67 -28.32 70.34 -29 70 C-29.46450943 63.49686791 -28.32575612 59.5825192 -25 54 C-24.34 54 -23.68 54 -23 54 C-22.20698019 48.64711627 -21.94785223 43.60872516 -22.16015625 38.19921875 C-22 36 -22 36 -20 33 C-19.34 33 -18.68 33 -18 33 C-18 32.34 -18 31.68 -18 31 C-17.01974044 29.98064177 -16.01692497 28.9827836 -15 28 C-11.19015691 22.11206068 -10.31891007 16.53586194 -9.85913086 9.63598633 C-9.57171877 6.24223423 -9.20400949 4.26542265 -7.10546875 1.53515625 C-4.52644725 -0.34528058 -3.12496975 -0.42229321 0 0 Z " fill="#315127" transform="translate(143,178)"/>
<path d="M0 0 C0.99 0.66 1.98 1.32 3 2 C3 2.66 3 3.32 3 4 C3.66 4 4.32 4 5 4 C5.495 5.98 5.495 5.98 6 8 C11.88769004 6.89605812 14.93973107 4.63906355 19.203125 0.4609375 C21 -1 21 -1 24 -1 C24 0.65 24 2.3 24 4 C26.97 4 29.94 4 33 4 C32.56244482 8.97808675 31.423772 11.20124799 27.8125 14.625 C26.99910156 15.39714844 26.18570313 16.16929687 25.34765625 16.96484375 C22.71676889 19.24552979 19.90415156 21.08590011 17 23 C15.20199364 24.91582444 13.62877387 26.93101697 12 29 C10.3125 30.875 10.3125 30.875 9 32 C8.34 32 7.68 32 7 32 C7 32.66 7 33.32 7 34 C4.69 33.67 2.38 33.34 0 33 C-0.33 31.35 -0.66 29.7 -1 28 C-3.78839304 27.49734308 -3.78839304 27.49734308 -7 28 C-10.12348455 30.58026985 -11.71615157 32.18078963 -12.34375 36.203125 C-12.39152993 39.90606972 -12.06070106 43.49704836 -11.6171875 47.171875 C-11.49601562 48.22890625 -11.37484375 49.2859375 -11.25 50.375 C-11.11078125 51.35210937 -10.9715625 52.32921875 -10.828125 53.3359375 C-11 56 -11 56 -12.859375 58.3515625 C-15 60 -15 60 -17 60 C-17 60.66 -17 61.32 -17 62 C-18.28913487 62.67154933 -19.58140204 63.33708859 -20.875 64 C-21.59429687 64.37125 -22.31359375 64.7425 -23.0546875 65.125 C-25 66 -25 66 -27 66 C-27 66.66 -27 67.32 -27 68 C-27.94875 68.45375 -28.8975 68.9075 -29.875 69.375 C-32.44051834 70.95378052 -32.93461423 71.73386846 -33.66796875 74.71875 C-33.79816406 75.7603125 -33.92835937 76.801875 -34.0625 77.875 C-34.79955095 83.70762438 -35.55139196 86.11929937 -40 90 C-42.29663927 91.33197005 -44.63052837 92.56538317 -46.984375 93.79296875 C-50.31799805 95.78926628 -51.30118117 98.34792061 -52.76171875 101.80078125 C-54.94514388 106.94514388 -54.94514388 106.94514388 -57 109 C-58.65 108.67 -60.3 108.34 -62 108 C-62 103.38 -62 98.76 -62 94 C-63.32 93.67 -64.64 93.34 -66 93 C-67.75 91.8125 -67.75 91.8125 -69 90 C-69.43566528 85.90474638 -68.89302061 83.56333291 -67 80 C-66.61709538 78.00889599 -66.27395385 76.00899487 -66 74 C-67.175625 73.5359375 -67.175625 73.5359375 -68.375 73.0625 C-71 72 -71 72 -73 71 C-72.46986029 66.20725042 -71.10079217 62.9335971 -68.625 58.8125 C-68.01914063 57.78769531 -67.41328125 56.76289063 -66.7890625 55.70703125 C-65.2721142 53.41173612 -64.07683747 51.75708475 -62 50 C-58.41348749 49.28342132 -54.87776005 48.77594968 -51.24804688 48.359375 C-47.33441796 47.80077174 -45.46337722 47.41924606 -42.45703125 44.69921875 C-40.85128281 41.72449443 -40.70979474 40.48252637 -41.125 37.1875 C-41.37663485 31.94248617 -39.76955847 29.38501591 -36.5078125 25.3984375 C-35 24 -35 24 -33 24 C-33.8604139 19.66770285 -33.8604139 19.66770285 -36 16 C-39.06886617 15.71525984 -42.13775297 15.55128201 -45.21484375 15.37890625 C-48 15 -48 15 -50 13 C-50.125 10.375 -50.125 10.375 -50 8 C-33.8739863 3.34506821 -33.8739863 3.34506821 -28 5 C-25.88813036 6.8893466 -24.2900982 8.88375135 -22.59765625 11.15234375 C-21.01252808 13.31857146 -21.01252808 13.31857146 -17.6875 14 C-16.800625 14 -15.91375 14 -15 14 C-14.34 14 -13.68 14 -13 14 C-12.67 12.68 -12.34 11.36 -12 10 C-11.34 10 -10.68 10 -10 10 C-10 7.69 -10 5.38 -10 3 C-8.515 2.505 -8.515 2.505 -7 2 C-7 1.34 -7 0.68 -7 0 C-3.8195064 -1.06016453 -3.04021693 -1.04507457 0 0 Z " fill="#325126" transform="translate(157,294)"/>
<path d="M0 0 C4 0 4 0 5.75 1.4375 C7.66048435 5.35399291 7.86410363 8.73391359 7 13 C5.31732982 16.26757054 3.24679798 19.10128137 1 22 C-1.36980013 24.95377498 -1.36980013 24.95377498 -1 29 C1.64 29 4.28 29 7 29 C7 28.34 7 27.68 7 27 C7.66 27 8.32 27 9 27 C9 26.34 9 25.68 9 25 C9.66 25 10.32 25 11 25 C11 24.34 11 23.68 11 23 C12.65 23 14.3 23 16 23 C16.495 24.485 16.495 24.485 17 26 C19.64 26 22.28 26 25 26 C25.18175781 25.38511719 25.36351562 24.77023437 25.55078125 24.13671875 C25.80214844 23.32847656 26.05351562 22.52023437 26.3125 21.6875 C26.55613281 20.88699219 26.79976563 20.08648437 27.05078125 19.26171875 C28.05354349 16.87242107 28.98059282 15.60410493 31 14 C31.66 14 32.32 14 33 14 C33 13.34 33 12.68 33 12 C34.64453125 10.7109375 34.64453125 10.7109375 36.8125 9.375 C37.52019531 8.92898437 38.22789062 8.48296875 38.95703125 8.0234375 C41 7 41 7 44 7 C44 9.64 44 12.28 44 15 C44.66 15 45.32 15 46 15 C46.33 17.31 46.66 19.62 47 22 C46.49210938 22.37511719 45.98421875 22.75023437 45.4609375 23.13671875 C44.01786517 24.20956466 42.5820972 25.29227999 41.15234375 26.3828125 C39.45148931 27.66076847 37.70209217 28.87410119 35.9375 30.0625 C31.88857633 33.40341516 29.88812979 38.51903769 27.61328125 43.13671875 C26 46 26 46 23 48 C20.0625 48.4375 20.0625 48.4375 17 48 C16.4225 47.175 15.845 46.35 15.25 45.5 C13.2778361 42.76613182 13.2778361 42.76613182 10.53125 42.66796875 C8.00462189 42.68571192 5.51701548 42.78384409 3 43 C3 43.66 3 44.32 3 45 C2.0409375 45.1546875 2.0409375 45.1546875 1.0625 45.3125 C0.381875 45.539375 -0.29875 45.76625 -1 46 C-1.33 46.99 -1.66 47.98 -2 49 C-5.49115606 51.01005955 -9.1061672 51.59435887 -13.08984375 51.52734375 C-16.21629578 50.66421282 -17.12351869 48.36916353 -18.703125 45.69140625 C-20.92216543 42.79729629 -23.51430001 42.61512353 -27 42 C-27 42.66 -27 43.32 -27 44 C-29.1171875 45.5078125 -29.1171875 45.5078125 -31.875 47.125 C-32.77992188 47.66382813 -33.68484375 48.20265625 -34.6171875 48.7578125 C-37 50 -37 50 -39 50 C-39 50.66 -39 51.32 -39 52 C-43.55369484 54.63358849 -47.85591942 54.57521668 -53 54 C-53.99 53.484375 -54.98 52.96875 -56 52.4375 C-60.43557064 50.3121224 -64.29054067 50.84181049 -69 52 C-72.32808239 53.88413915 -72.32808239 53.88413915 -75 56 C-77.95902346 56.98427768 -80.64550193 57.10815438 -83.75 57.0625 C-84.54921875 57.05347656 -85.3484375 57.04445313 -86.171875 57.03515625 C-86.77515625 57.02355469 -87.3784375 57.01195312 -88 57 C-87.5020163 53.26512223 -87.12508244 51.18762365 -85 48 C-84.64579239 45.62392133 -84.64579239 45.62392133 -84.6875 43.0625 C-84.67074219 42.20785156 -84.65398437 41.35320312 -84.63671875 40.47265625 C-85.06837567 37.53460432 -86.16790679 36.28416816 -88 34 C-88.375 30.9375 -88.375 30.9375 -88 28 C-87.26136719 27.32130859 -87.26136719 27.32130859 -86.5078125 26.62890625 C-84.47450618 24.4323033 -84.6053658 22.95024253 -84.5 20 C-84.33693844 15.43427621 -84.33693844 15.43427621 -82.59375 13.1875 C-81 12 -81 12 -79 12 C-78.79375 13.11375 -78.5875 14.2275 -78.375 15.375 C-77.694375 17.169375 -77.694375 17.169375 -77 19 C-74.14186566 20.34163026 -74.14186566 20.34163026 -71 21 C-68.8203125 22.16015625 -68.8203125 22.16015625 -67 24 C-66.609375 26.91796875 -66.609375 26.91796875 -66.75 30.1875 C-66.78609375 31.27417969 -66.8221875 32.36085938 -66.859375 33.48046875 C-66.92898437 34.72763672 -66.92898437 34.72763672 -67 36 C-64.36723722 35.04928011 -62.33239737 34.30918944 -60.265625 32.38671875 C-56.63289644 30.16323834 -52.91352332 30.68564265 -48.75 30.8125 C-47.48929688 30.83280273 -47.48929688 30.83280273 -46.203125 30.85351562 C-44.13514062 30.88876536 -42.06748729 30.9425698 -40 31 C-39.79246094 30.43410156 -39.58492187 29.86820312 -39.37109375 29.28515625 C-38.40983994 26.99664823 -37.4494931 25.01817329 -36 23 C-32.75 22.0625 -32.75 22.0625 -29 22 C-20.77094812 21.42022134 -15.09370172 18.75322268 -9 13 C-6.76217403 10.21222789 -4.76689227 7.28951647 -2.93994141 4.2175293 C-1.9375 2.5625 -1.9375 2.5625 0 0 Z " fill="#315026" transform="translate(183,235)"/>
<path d="M0 0 C2.46050459 2.39590901 2.97730122 3.79741952 3.36328125 7.2421875 C3.33814453 9.04042969 3.33814453 9.04042969 3.3125 10.875 C3.30863281 12.06867188 3.30476563 13.26234375 3.30078125 14.4921875 C2.72602305 21.19521172 0.87851582 24.46994959 -4 29 C-4.61875 29.804375 -5.2375 30.60875 -5.875 31.4375 C-8.11490907 34.13856682 -10.48660111 36.03373131 -13.31640625 38.08203125 C-18.59584378 44.09642528 -18.36761072 51.27574537 -18.125 58.8125 C-18.08164168 60.67308194 -18.04239428 62.5337655 -18.0078125 64.39453125 C-17.98348145 65.20768799 -17.95915039 66.02084473 -17.93408203 66.85864258 C-18 69 -18 69 -19 72 C-19.66 72 -20.32 72 -21 72 C-21.185625 73.0828125 -21.185625 73.0828125 -21.375 74.1875 C-22 77 -22 77 -22.9375 79.3125 C-23.82728755 81.56313909 -24.40251267 83.59247219 -24.9375 85.9375 C-26.13095553 90.81230682 -27.79313648 94.61565655 -31.125 98.4375 C-35.21859467 100.66227971 -38.55697913 100.02128378 -43 99 C-43.99 98.505 -43.99 98.505 -45 98 C-53.02875576 97.27011311 -60.76895551 99.44109592 -67.3125 104.25 C-70.50263882 106.32729969 -72.26223726 106.50969492 -76 106 C-78 104 -78 104 -78.4921875 101.2421875 C-77.81760228 96.79849121 -75.40841804 94.88998361 -72.125 92.125 C-71.56941406 91.62742187 -71.01382813 91.12984375 -70.44140625 90.6171875 C-66.31741501 87 -66.31741501 87 -64 87 C-63.67 86.01 -63.34 85.02 -63 84 C-62.34 84 -61.68 84 -61 84 C-60.7525 83.175 -60.505 82.35 -60.25 81.5 C-56.43691325 70.82335711 -51.37127013 65.56358703 -41.5234375 59.84375 C-38.68650914 57.77094786 -37.44900477 56.18781049 -36 53 C-35.57690138 50.31300659 -35.57690138 50.31300659 -35.5625 47.5625 C-35.2330875 42.48405723 -34.38793791 39.79859706 -31 36 C-30.34 36 -29.68 36 -29 36 C-29 35.34 -29 34.68 -29 34 C-26.8299737 32.40773752 -24.55367772 31.04268098 -22.26171875 29.6328125 C-16.77615056 25.67259228 -15.69961616 20.25231051 -13.98242188 14.01953125 C-11.92702907 6.95536568 -8.71571774 -1.30735766 0 0 Z " fill="#4E6F44" transform="translate(197,326)"/>
<path d="M0 0 C3.5 0.25 3.5 0.25 5.5 2.25 C5.546875 4.24609375 5.546875 4.24609375 5.25 6.6875 C5.14300781 7.57050781 5.03601563 8.45351563 4.92578125 9.36328125 C4.23954495 14.01583744 3.40366648 18.63515952 2.5 23.25 C3.16 23.25 3.82 23.25 4.5 23.25 C6.16666667 24.91666667 7.83333333 26.58333333 9.5 28.25 C10.53125 28.889375 11.5625 29.52875 12.625 30.1875 C16.04566629 32.64145625 17.1277111 34.28560983 18.5 38.25 C18.85104181 41.73441498 19.10211022 45.04577956 17.5 48.25 C17.42883618 50.62402501 17.41590915 53.00000677 17.4375 55.375 C17.44652344 56.65632813 17.45554688 57.93765625 17.46484375 59.2578125 C17.47644531 60.24523437 17.48804688 61.23265625 17.5 62.25 C18.28761719 62.54261719 19.07523438 62.83523438 19.88671875 63.13671875 C22.90842011 64.42399063 23.94252458 65.38096632 25.5 68.25 C25.75 70.9375 25.75 70.9375 25.5 73.25 C25.17 73.58 24.84 73.91 24.5 74.25 C22.45589984 73.99819056 20.41463457 73.72323468 18.375 73.4375 C13.64560479 72.97178417 13.64560479 72.97178417 9.22265625 74.33984375 C7.44200994 75.87112165 5.96561108 77.41693023 4.5 79.25 C3.38625 80.61125 3.38625 80.61125 2.25 82 C1.6725 82.7425 1.095 83.485 0.5 84.25 C-4.00209539 87.25139692 -7.94199229 85.81685272 -13.15234375 85.1484375 C-16.56816066 84.89739797 -16.56816066 84.89739797 -18.70703125 87.1796875 C-19.29871094 87.86289062 -19.89039063 88.54609375 -20.5 89.25 C-24.25 90 -24.25 90 -27.5 90.25 C-27.85443365 85.99679615 -26.99290822 84.57387762 -24.5 81.25 C-23.91666667 78.75 -23.91666667 78.75 -24.5 76.25 C-25.16 75.63125 -25.82 75.0125 -26.5 74.375 C-28.5 72.25 -28.5 72.25 -29.125 68.8125 C-28.42804163 64.8398373 -27.3926893 63.82344168 -24.29150391 61.39428711 C-20.80514861 59.16744774 -16.84318144 58.27304034 -12.890625 57.22265625 C-8.29913073 55.87495044 -5.97848369 54.36627567 -3.5 50.25 C-3.16534111 46.54059225 -3.16534111 46.54059225 -3.5 43.25 C-4.28375 42.96125 -5.0675 42.6725 -5.875 42.375 C-8.5 41.25 -8.5 41.25 -10.5 39.25 C-10.96014247 35.96326805 -11.24780494 33.39400584 -9.37011719 30.52148438 C-8.91282227 29.92658203 -8.45552734 29.33167969 -7.984375 28.71875 C-4.63230596 23.56878011 -5.00036177 18.84118652 -5.3125 12.875 C-5.39006497 10.90917306 -5.45949745 8.94300289 -5.51953125 6.9765625 C-5.56182861 6.11627441 -5.60412598 5.25598633 -5.64770508 4.36962891 C-5.37289662 0.42601402 -3.68319129 0.26308509 0 0 Z " fill="#8B9D5F" transform="translate(234.5,323.75)"/>
<path d="M0 0 C2.875 0.75 2.875 0.75 4.9375 2.76953125 C9.15604573 5.61368376 12.7787435 5.21328775 17.75 5.1875 C31.63388901 5.50181599 44.64731276 8.52231276 54.875 18.75 C55.22217797 24.30484752 54.44536873 29.40845382 52.875 34.75 C51.875 35.75 51.875 35.75 48.75 36 C45.70152671 35.55464691 44.9308928 34.81946676 42.9609375 32.37109375 C41.18711152 29.53674628 39.53366464 26.65266311 37.875 23.75 C36.89844656 22.39939971 35.90703481 21.05869474 34.875 19.75 C32.565 20.08 30.255 20.41 27.875 20.75 C27.95878906 21.46027344 28.04257812 22.17054688 28.12890625 22.90234375 C28.28166016 24.28099609 28.28166016 24.28099609 28.4375 25.6875 C28.59412109 27.06228516 28.59412109 27.06228516 28.75390625 28.46484375 C28.81384766 29.59599609 28.81384766 29.59599609 28.875 30.75 C27.875 31.75 27.875 31.75 25.75 32.125 C22.63861731 31.71916748 21.87506227 31.14363073 19.5 29.25 C16.68479438 27.08161405 15.80626839 26.74098602 12.0625 26.25 C11.010625 26.415 9.95875 26.58 8.875 26.75 C6.85972923 29.77290616 6.61981882 30.46662734 6.53125 33.875 C6.48677734 35.05835938 6.48677734 35.05835938 6.44140625 36.265625 C6.41949219 37.08546875 6.39757812 37.9053125 6.375 38.75 C6.33155768 40.37525396 6.27980852 42.00031248 6.21875 43.625 C6.20005859 44.34429687 6.18136719 45.06359375 6.16210938 45.8046875 C5.875 47.75 5.875 47.75 3.875 50.75 C1.625 50.8125 1.625 50.8125 -1.125 49.75 C-2.83124241 46.89276695 -3.93261009 43.848131 -5.125 40.75 C-5.90597367 38.50893308 -5.90597367 38.50893308 -7.125 36.75 C-9.10459898 36.45792802 -11.08798936 36.17489069 -13.08203125 36.0078125 C-16.09360625 35.62776671 -17.88075032 34.78385127 -20.125 32.75 C-20.72087577 28.66399472 -20.44067384 27.22351075 -18.125 23.75 C-18.34795689 20.33132773 -18.86488069 18.1661909 -20.6875 15.25 C-22.42953682 12.22037075 -22.36488901 10.18840911 -22.125 6.75 C-19.8125 6.0625 -19.8125 6.0625 -17.125 5.75 C-15.5625 7.1875 -15.5625 7.1875 -14.125 8.75 C-12.805 8.75 -11.485 8.75 -10.125 8.75 C-8.33054824 6.99444594 -8.33054824 6.99444594 -6.75 4.75 C-3.50690755 0.84165781 -3.50690755 0.84165781 0 0 Z " fill="#8B9D5F" transform="translate(335.125,206.25)"/>
<path d="M0 0 C2.4375 0.0625 2.4375 0.0625 5 1 C14.6682508 14.56947481 13.31013636 40.3057403 11 56 C8.92431184 67.73837442 4.76262042 77.61272164 -1 88 C-1.33531738 88.61552734 -1.67063477 89.23105469 -2.01611328 89.86523438 C-5.98585536 97.12576116 -5.98585536 97.12576116 -8 100 C-8.66 100 -9.32 100 -10 100 C-10.226875 100.556875 -10.45375 101.11375 -10.6875 101.6875 C-13.11420254 105.96311877 -16.43250373 109.13916819 -21 111 C-21 111.66 -21 112.32 -21 113 C-24.4902758 116.20797408 -28.27128269 119.07484332 -32 122 C-32.80566406 122.63550781 -33.61132812 123.27101563 -34.44140625 123.92578125 C-39.72136038 128 -39.72136038 128 -42 128 C-42 128.66 -42 129.32 -42 130 C-43.32 130.33 -44.64 130.66 -46 131 C-46 131.66 -46 132.32 -46 133 C-48.475 133.99 -48.475 133.99 -51 135 C-51 135.66 -51 136.32 -51 137 C-52.66459321 138.42764044 -54.38354073 139.79220317 -56.125 141.125 C-60.9546401 144.9700167 -64.65765481 148.82430091 -68 154 C-67.34 154.99 -66.68 155.98 -66 157 C-66.66 157.33 -67.32 157.66 -68 158 C-68 157.34 -68 156.68 -68 156 C-68.763125 156.103125 -69.52625 156.20625 -70.3125 156.3125 C-71.6428125 156.1578125 -71.6428125 156.1578125 -73 156 C-74.8125 153.5 -74.8125 153.5 -76 151 C-75.57847656 150.56429687 -75.15695312 150.12859375 -74.72265625 149.6796875 C-71.23634805 145.88986541 -69.26119037 143.35440266 -69 138 C-68.34 138 -67.68 138 -67 138 C-67 137.34 -67 136.68 -67 136 C-66.34 136 -65.68 136 -65 136 C-65 135.34 -65 134.68 -65 134 C-60.6253571 129.34781178 -55.22082141 125.54191595 -50.1875 121.625 C-49.34312378 120.96371094 -49.34312378 120.96371094 -48.48168945 120.2890625 C-45.9906904 118.37434772 -44.00512875 117.00170958 -41 116 C-41 115.34 -41 114.68 -41 114 C-39.3203125 112.4921875 -39.3203125 112.4921875 -37.125 110.875 C-36.40570313 110.33617187 -35.68640625 109.79734375 -34.9453125 109.2421875 C-33 108 -33 108 -31 108 C-31 107.34 -31 106.68 -31 106 C-29.28515625 104.34375 -29.28515625 104.34375 -27.0625 102.5 C-24.07954821 100.11073001 -24.07954821 100.11073001 -22 97 C-21.34 97 -20.68 97 -20 97 C-19.61908203 96.15501953 -19.61908203 96.15501953 -19.23046875 95.29296875 C-17.83950839 92.70092517 -16.14881563 90.6106003 -14.3125 88.3125 C-4.27389233 74.6118957 1.33349637 55.89441811 2 39 C2.03996094 38.21753906 2.07992187 37.43507812 2.12109375 36.62890625 C2.38664217 26.86609672 0.75773293 17.30964752 -2.51171875 8.12109375 C-3.07720915 5.66460343 -2.89588216 4.34117272 -2 2 C-1.34 1.34 -0.68 0.68 0 0 Z " fill="#4E503E" transform="translate(378,22)"/>
<path d="M0 0 C1.65 0 3.3 0 5 0 C5.17273438 0.54269531 5.34546875 1.08539063 5.5234375 1.64453125 C6.90831244 5.17024497 7.83267289 7.46505468 11.38671875 9.09375 C13.13052726 9.56215988 14.88959681 9.97791936 16.66015625 10.33203125 C19.35543445 11.10146793 20.25409641 11.84149572 22 14 C22.30315434 16.94700999 22.46660966 19.73722519 22.5 22.6875 C22.58792594 30.26797179 23.44105016 36.36794217 27.9375 42.75 C31.74849599 45.54991542 35.49766458 46.59730133 39.98828125 47.97265625 C46.40841666 50.16266353 51.17805906 53.33965709 55 59 C55.7578125 62.12109375 55.7578125 62.12109375 56.125 65.4375 C56.86477648 73.05563842 56.86477648 73.05563842 60.40234375 79.64453125 C62.92683211 81.56519797 64.97036914 82.99012305 68 84 C68 84.66 68 85.32 68 86 C68.9590625 86.4640625 68.9590625 86.4640625 69.9375 86.9375 C72 88 72 88 73 89 C73.125 92 73.125 92 73 95 C71.26043342 96.73956658 68.8063378 96.37190386 66.4375 96.5625 C65.42558594 96.64628906 64.41367187 96.73007812 63.37109375 96.81640625 C62.58863281 96.87699219 61.80617188 96.93757813 61 97 C60.81824219 97.59167969 60.63648438 98.18335938 60.44921875 98.79296875 C57.46716162 108.16733295 57.46716162 108.16733295 55 111 C51.9375 111.5 51.9375 111.5 49 111 C46.61378194 107.42067291 46.5214967 106.22677916 47 102 C47.9438528 99.907109 49.01447605 97.910454 50.09765625 95.88671875 C51.28732104 93.39923782 51.52664859 91.70847847 51 89 C50.49597656 88.45730469 49.99195313 87.91460937 49.47265625 87.35546875 C47.06716827 83.5079641 47.8766875 79.30473234 48.1171875 74.93164062 C48.27207102 70.34106519 47.91499344 67.5989941 45 64 C42.87841063 62.18996252 42.87841063 62.18996252 40.5 60.75 C39.7265625 60.24984375 38.953125 59.7496875 38.15625 59.234375 C33.32058956 56.4661346 28.43473882 56.36608801 23 57 C19.76060344 58.73539102 17.57678866 60.42321134 15 63 C11.875 63.125 11.875 63.125 9 63 C8.69357021 57.79069354 9.34827144 55.38111676 12 51 C12.08024658 48.40110217 12.08024658 48.40110217 11 46 C10.29875 45.38125 9.5975 44.7625 8.875 44.125 C7 42 7 42 7 38.6875 C7.82568268 35.64279512 8.53134201 33.90915953 10.125 31.3125 C12.14981949 28.30656496 12.14981949 28.30656496 12.125 25.75 C10.38150386 23.03789489 7.8899557 22.26435562 5 21 C4.67 20.67 4.34 20.34 4 20 C4.03231375 18.24918246 4.10098642 16.49897732 4.1875 14.75 C4.25881384 9.73858211 3.5559905 7.66711521 0 4 C0 2.68 0 1.36 0 0 Z " fill="#8A9C5F" transform="translate(279,256)"/>
<path d="M0 0 C3 0.5625 3 0.5625 5.375 1.875 C8.04698573 6.29405332 7.65235709 10.5380959 7 15.5625 C6.07251168 18.86068044 4.99370504 22.08100806 3.890625 25.32421875 C2.57522265 30.10697554 2.6453656 34.64687324 3 39.5625 C3.92039063 40.02269531 3.92039063 40.02269531 4.859375 40.4921875 C6.90625 41.515625 8.953125 42.5390625 11 43.5625 C11.20086443 47.27849191 11.1519437 48.33458445 9 51.5625 C4.13163297 52.45668986 1.32498102 51.42789604 -2.6875 48.8125 C-4.13840398 47.74718549 -5.57768212 46.66569047 -7 45.5625 C-7.825 44.964375 -8.65 44.36625 -9.5 43.75 C-11.84744223 40.32664675 -11.82606771 36.6325155 -12 32.5625 C-17.19202267 32.118337 -17.19202267 32.118337 -21.625 34.5625 C-26.83189418 37.64806692 -32.08689254 36.87833363 -38 36.5625 C-38.99 33.5925 -39.98 30.6225 -41 27.5625 C-42.27617187 27.52511719 -43.55234375 27.48773438 -44.8671875 27.44921875 C-46.53648838 27.38357209 -48.20575789 27.3171243 -49.875 27.25 C-50.71675781 27.22744141 -51.55851563 27.20488281 -52.42578125 27.18164062 C-53.23144531 27.14619141 -54.03710938 27.11074219 -54.8671875 27.07421875 C-55.61081543 27.04803467 -56.35444336 27.02185059 -57.12060547 26.99487305 C-59 26.5625 -59 26.5625 -61 23.5625 C-61 21.0625 -61 21.0625 -60 18.5625 C-59.05125 18.129375 -58.1025 17.69625 -57.125 17.25 C-53.93058557 15.93710479 -53.93058557 15.93710479 -53.1484375 13.63671875 C-52.93445313 12.91097656 -52.72046875 12.18523437 -52.5 11.4375 C-51.31631191 7.73503377 -51.31631191 7.73503377 -48.25 6.0625 C-43.1286711 6.85039675 -40.96954203 10.54746832 -38 14.5625 C-37.39027344 14.25054687 -36.78054687 13.93859375 -36.15234375 13.6171875 C-33.62834099 12.38038034 -31.82335714 11.70022474 -29 11.5625 C-25.83073735 13.62620591 -24.10388482 15.40667276 -22 18.5625 C-20.098006 19.03808206 -20.098006 19.03808206 -18 18.9375 C-16.948125 18.94910156 -16.948125 18.94910156 -15.875 18.9609375 C-13.58941406 18.703414 -13.58941406 18.703414 -12 15.5625 C-11.34 15.5625 -10.68 15.5625 -10 15.5625 C-9.82984375 14.89863281 -9.6596875 14.23476562 -9.484375 13.55078125 C-6.07810696 1.13964506 -6.07810696 1.13964506 0 0 Z " fill="#315126" transform="translate(217,144.4375)"/>
<path d="M0 0 C5.84085537 1.95470857 10.98807766 5.20743629 14.94140625 9.984375 C14.94140625 10.644375 14.94140625 11.304375 14.94140625 11.984375 C15.60140625 11.984375 16.26140625 11.984375 16.94140625 11.984375 C17.02390625 12.603125 17.10640625 13.221875 17.19140625 13.859375 C18.19056525 16.69032549 19.28670383 16.6917712 21.94140625 17.984375 C28.69673578 22.86647624 32.04571361 26.94854583 33.94140625 34.984375 C34.48087891 36.72074219 34.48087891 36.72074219 35.03125 38.4921875 C38.34752818 49.18913867 38.34752818 49.18913867 36.94140625 53.984375 C34.10836093 53.63179076 33.12137576 53.19433943 31.23046875 50.98828125 C30.68132812 50.18261719 30.1321875 49.37695312 29.56640625 48.546875 C26.5660187 44.45660308 24.7449546 43.55074946 19.94140625 41.984375 C17.26207559 38.75733587 15.41533083 35.1831254 13.87890625 31.296875 C12.33060027 27.47772024 9.94840137 24.86931011 6.87890625 22.171875 C2.32399375 20.33052739 -2.20776723 20.75500142 -7.05859375 20.984375 C-7.05859375 21.644375 -7.05859375 22.304375 -7.05859375 22.984375 C-10.52907228 26.38438696 -13.68043098 28.8367147 -18.55859375 29.359375 C-19.38359375 29.235625 -20.20859375 29.111875 -21.05859375 28.984375 C-22.54359375 25.519375 -22.54359375 25.519375 -24.05859375 21.984375 C-28.34428343 21.63452278 -31.13133006 21.77004333 -34.74609375 24.046875 C-38.05859375 25.984375 -38.05859375 25.984375 -40.49609375 25.734375 C-41.01171875 25.486875 -41.52734375 25.239375 -42.05859375 24.984375 C-42.49609375 22.359375 -42.49609375 22.359375 -42.05859375 18.984375 C-37.82337034 13.26887933 -31.70401673 11.53163429 -25.05859375 9.984375 C-23.72512735 9.65157439 -22.39174661 9.31842939 -21.05859375 8.984375 C-20.72859375 6.344375 -20.39859375 3.704375 -20.05859375 0.984375 C-19.39859375 0.984375 -18.73859375 0.984375 -18.05859375 0.984375 C-18.05859375 0.324375 -18.05859375 -0.335625 -18.05859375 -1.015625 C-12.52614809 -3.78184783 -5.63473459 -1.49507351 0 0 Z " fill="#628157" transform="translate(223.05859375,100.015625)"/>
<path d="M0 0 C1.32 0.33 2.64 0.66 4 1 C6.38836006 7.71726267 7.28795532 15.13613404 5 22 C4.34 22 3.68 22 3 22 C2.814375 23.0828125 2.814375 23.0828125 2.625 24.1875 C2 27 2 27 1.0625 29.3125 C0.17271245 31.56313909 -0.40251267 33.59247219 -0.9375 35.9375 C-2.13095553 40.81230682 -3.79313648 44.61565655 -7.125 48.4375 C-11.21859467 50.66227971 -14.55697913 50.02128378 -19 49 C-19.99 48.505 -19.99 48.505 -21 48 C-29.02875576 47.27011311 -36.76895551 49.44109592 -43.3125 54.25 C-46.50263882 56.32729969 -48.26223726 56.50969492 -52 56 C-54 54 -54 54 -54.4921875 51.2421875 C-53.81760228 46.79849121 -51.40841804 44.88998361 -48.125 42.125 C-47.56941406 41.62742187 -47.01382813 41.12984375 -46.44140625 40.6171875 C-42.31741501 37 -42.31741501 37 -40 37 C-39.67 36.01 -39.34 35.02 -39 34 C-38.34 34 -37.68 34 -37 34 C-36.7525 33.175 -36.505 32.35 -36.25 31.5 C-32.02383303 19.66673248 -25.59296337 14.50991712 -15 8 C-14.01 7.34 -13.02 6.68 -12 6 C-11.01 6 -10.02 6 -9 6 C-8.31162432 15.67550265 -8.31162432 15.67550265 -10.875 19.625 C-11.926875 20.800625 -11.926875 20.800625 -13 22 C-13.66 22 -14.32 22 -15 22 C-15 22.66 -15 23.32 -15 24 C-16.134375 24.474375 -17.26875 24.94875 -18.4375 25.4375 C-21.75740166 26.63622083 -21.75740166 26.63622083 -23 28 C-23.36760731 30.32817964 -23.70241581 32.6618385 -24 35 C-24.66 35 -25.32 35 -26 35 C-26.33 35.99 -26.66 36.98 -27 38 C-27.66 38 -28.32 38 -29 38 C-29 39.65 -29 41.3 -29 43 C-27.7315625 42.505 -27.7315625 42.505 -26.4375 42 C-21.12650754 40.45498401 -16.34264043 40.70481444 -11 42 C-11 41.34 -11 40.68 -11 40 C-10.34 40 -9.68 40 -9 40 C-8.92523438 38.7934375 -8.85046875 37.586875 -8.7734375 36.34375 C-7.62862663 21.50923183 -7.62862663 21.50923183 -2.19140625 15.796875 C-0.53010445 13.29130508 -0.87203969 11.68874756 -1.25 8.75 C-1.42015625 7.94046875 -1.5903125 7.1309375 -1.765625 6.296875 C-2.04491888 3.55979499 -1.41959633 2.30949253 0 0 Z " fill="#4E6F44" transform="translate(173,376)"/>
<path d="M0 0 C2.25 2.0625 2.25 2.0625 4 5 C4.90776632 6.27720611 5.82470737 7.5479334 6.75 8.8125 C7.4925 9.864375 8.235 10.91625 9 12 C10.43836751 11.88541307 11.87570966 11.75790884 13.3125 11.625 C14.11300781 11.55539063 14.91351563 11.48578125 15.73828125 11.4140625 C18.27224441 11.10435574 18.27224441 11.10435574 21 9 C24.1875 8.875 24.1875 8.875 27 9 C28.125 14.75 28.125 14.75 27 17 C26.34 17 25.68 17 25 17 C24.505 18.485 24.505 18.485 24 20 C23.23816406 20.27714844 22.47632813 20.55429688 21.69140625 20.83984375 C18.14251156 22.36962855 17.03871101 24.35846651 14.9375 27.5625 C11.51912243 32.76791059 11.51912243 32.76791059 8.859375 33.95703125 C8.24578125 33.97121094 7.6321875 33.98539063 7 34 C6.443125 33.38125 5.88625 32.7625 5.3125 32.125 C2.40814048 29.45612909 0.40020838 28.87100827 -3.48828125 28.5625 C-8.68639342 29.46792545 -12.23644017 33.54194503 -16 37 C-19.50762495 39.94378244 -21.38363505 40.31475216 -26 40 C-25.125 34.125 -25.125 34.125 -24 33 C-23.76518307 30.81707226 -23.58636677 28.62796826 -23.4375 26.4375 C-23.31181641 24.64119141 -23.31181641 24.64119141 -23.18359375 22.80859375 C-23.12300781 21.88175781 -23.06242188 20.95492187 -23 20 C-21.865625 19.608125 -20.73125 19.21625 -19.5625 18.8125 C-15.9094239 17.40469677 -15.9094239 17.40469677 -14.875 14.6875 C-14.82544173 11.84264865 -14.82544173 11.84264865 -16.5 9 C-18.16929661 5.66140679 -18.12258603 4.46981138 -17 1 C-4.63014631 -0.79925145 -4.63014631 -0.79925145 0 0 Z " fill="#628158" transform="translate(156,196)"/>
<path d="M0 0 C0.66 0 1.32 0 2 0 C2.05607422 1.64548828 2.05607422 1.64548828 2.11328125 3.32421875 C2.17896653 4.77867857 2.24541299 6.23310416 2.3125 7.6875 C2.34633789 8.7693457 2.34633789 8.7693457 2.38085938 9.87304688 C2.61001313 14.43528981 3.36560821 17.14546885 6 21 C6.4375 24.0625 6.4375 24.0625 6 27 C2.40581511 31.35040818 -2.07867348 33.07530473 -7.125 35.33984375 C-10.35994736 37.20785004 -12.04722176 38.82139016 -14 42 C-14.15010159 44.4419487 -14.15010159 44.4419487 -13.6875 46.875 C-13.5546875 49.5078125 -13.5546875 49.5078125 -14 52 C-16.08291357 54.2039127 -18.27219384 55.72331935 -20.796875 57.39453125 C-23.81280405 59.59230934 -24.73853772 61.55200311 -26 65 C-27.32 64.67 -28.64 64.34 -30 64 C-31.09961021 60.04140323 -30.83719415 58.56631805 -29 55 C-28.61388102 51.37048162 -28.64433446 49.58329149 -30.5625 46.4375 C-32 44 -32 44 -32 41.4375 C-30.22321785 37.1065935 -26.74628779 35.33424802 -22.58984375 33.47265625 C-20.15355459 32.53201412 -17.71604915 31.59451616 -15.27734375 30.66015625 C-11.65345288 28.82445468 -10.09894193 27.45533366 -8 24 C-7.06273676 20.77794782 -7.06273676 20.77794782 -6.5625 17.3125 C-5.33971991 10.86573166 -3.29404581 5.65065566 0 0 Z " fill="#889A5E" transform="translate(130,320)"/>
<path d="M0 0 C2.25 0.4375 2.25 0.4375 3.25 1.4375 C3.32271741 3.79063555 3.33370868 6.14583668 3.3125 8.5 C3.30347656 9.79035156 3.29445313 11.08070313 3.28515625 12.41015625 C3.27355469 13.40917969 3.26195313 14.40820312 3.25 15.4375 C3.94867188 15.71464844 4.64734375 15.99179687 5.3671875 16.27734375 C6.27726562 16.63957031 7.18734375 17.00179688 8.125 17.375 C9.02992187 17.73464844 9.93484375 18.09429687 10.8671875 18.46484375 C13.25 19.4375 13.25 19.4375 15.25 20.4375 C15.62168142 27.99502212 15.62168142 27.99502212 13.9375 30 C13.380625 30.474375 12.82375 30.94875 12.25 31.4375 C11.79625 32.63375 11.3425 33.83 10.875 35.0625 C9.25 38.4375 9.25 38.4375 7.0625 39.4375 C3.37291541 39.4375 -0.10089712 38.99414281 -3.75 38.4375 C-4.306875 39.4275 -4.86375 40.4175 -5.4375 41.4375 C-7.75 44.4375 -7.75 44.4375 -10.5 44.8125 C-11.61375 44.626875 -11.61375 44.626875 -12.75 44.4375 C-14.31935594 41.29878812 -14.10201103 38.89894178 -13.75 35.4375 C-11.62941316 32.91572106 -9.47976755 30.99698846 -6.875 29 C-5.43018616 27.35011211 -5.43018616 27.35011211 -6 24.4375 C-6.71484744 21.41513019 -6.71484744 21.41513019 -7.75 18.4375 C-8.9001951 7.05056852 -8.9001951 7.05056852 -5.5625 2.6875 C-2.75 0.4375 -2.75 0.4375 0 0 Z " fill="#315126" transform="translate(92.75,296.5625)"/>
<path d="M0 0 C2.83398763 0.09606738 5.02345099 0.27250432 7.6875 1.125 C7.6875 1.785 7.6875 2.445 7.6875 3.125 C8.4403125 3.19847656 9.193125 3.27195312 9.96875 3.34765625 C13.4465515 4.34202766 14.21289309 5.57730417 16.1875 8.5625 C17.0846875 9.91794922 17.0846875 9.91794922 18 11.30078125 C19.55511552 13.90343986 20.89582767 16.50944522 22.1875 19.25 C23.83725997 22.74553102 25.59543782 25.31826547 28.25 28.125 C35.70794392 36.21387627 39.0074611 49.31031496 38.6875 60.125 C36.15349407 59.13366295 34.91451633 58.50261867 33.4921875 56.13671875 C33.18539062 55.36972656 32.87859375 54.60273438 32.5625 53.8125 C32.22734375 53.00683594 31.8921875 52.20117188 31.546875 51.37109375 C30.91692506 49.72463367 30.34700494 48.05487267 29.8125 46.375 C28.17013408 43.09026817 25.53555038 41.37970655 22.6875 39.125 C20.00822659 35.10608988 20.53148752 32.88338077 20.6875 28.125 C19.6975 27.795 18.7075 27.465 17.6875 27.125 C16.5 24.5625 16.5 24.5625 15.6875 22.125 C15.0275 22.125 14.3675 22.125 13.6875 22.125 C13.46835937 21.43792969 13.24921875 20.75085938 13.0234375 20.04296875 C11.08645428 14.28177793 11.08645428 14.28177793 6.875 10.125 C4.5730907 9.40283238 2.25866188 8.72016253 -0.0625 8.0625 C-3.3125 7.125 -3.3125 7.125 -5.3125 5.125 C-4.68053561 0.95403499 -4.37605683 0.16513422 0 0 Z " fill="#325228" transform="translate(246.3125,91.875)"/>
<path d="M0 0 C1.75 0.125 1.75 0.125 4 1 C4.804375 2.4540625 4.804375 2.4540625 5.625 3.9375 C8.33067436 7.42639589 8.86595793 7.44421218 13 8.0625 C17.7428884 8.78788293 17.7428884 8.78788293 20.5 11.0625 C21.88470042 13.77420499 22.29002835 15.4401809 22.75 18.375 C23.76741892 24.10518015 27.46327848 26.71878979 32 30 C31.67 31.65 31.34 33.3 31 35 C28.03 34.67 25.06 34.34 22 34 C21.34 35.32 20.68 36.64 20 38 C19.01 38 18.02 38 17 38 C16.67 36.865625 16.34 35.73125 16 34.5625 C15.27812632 32.59506575 15.27812632 32.59506575 14 31 C11.20799134 30.030782 9.00602421 30.04927909 6 30 C5.91734616 26.61119245 6.03324649 23.86938878 6.875 20.5625 C7.01636707 16.5335385 6.66222552 16.11948124 4.125 13.25 C3.57070312 12.69828125 3.01640625 12.1465625 2.4453125 11.578125 C-0.66508358 8.18190874 -0.08201028 4.3465446 0 0 Z " fill="#618057" transform="translate(241,149)"/>
<path d="M0 0 C0.99 0 1.98 0 3 0 C2.85691406 1.30324219 2.85691406 1.30324219 2.7109375 2.6328125 C2.54464844 4.36144531 2.54464844 4.36144531 2.375 6.125 C2.25898438 7.26195312 2.14296875 8.39890625 2.0234375 9.5703125 C1.99873982 13.1844058 2.75685324 15.63731183 4 19 C3.91362393 23.14605157 3.39206255 24.58833432 0.5 27.625 C-2.89705945 31.3043366 -2.61701618 35.33326504 -2.8203125 40.140625 C-3.02182158 43.34724771 -3.76567274 46.03761458 -5 49 C-5.66 49 -6.32 49 -7 49 C-7 49.66 -7 50.32 -7 51 C-7.79664063 50.98839844 -8.59328125 50.97679687 -9.4140625 50.96484375 C-17.25478989 50.88148443 -17.25478989 50.88148443 -25 52 C-25.36625971 47.48279689 -25.36625971 47.48279689 -23.625 45.1875 C-22 44 -22 44 -20 44 C-20.103125 42.9275 -20.20625 41.855 -20.3125 40.75 C-20 37 -20 37 -17.75 34.5625 C-15 33 -15 33 -11 33 C-11 32.34 -11 31.68 -11 31 C-9.68799596 29.64567325 -8.35368596 28.31266518 -7 27 C-5.8508716 24.70174321 -5.65792158 22.90228191 -5.3515625 20.3515625 C-5.23296875 19.42859375 -5.114375 18.505625 -4.9921875 17.5546875 C-4.74847922 15.61020656 -4.51143717 13.66487788 -4.28125 11.71875 C-4.16007812 10.79320312 -4.03890625 9.86765625 -3.9140625 8.9140625 C-3.8104541 8.0679541 -3.7068457 7.2218457 -3.60009766 6.35009766 C-2.89753838 3.59874061 -1.96615859 2.04153095 0 0 Z " fill="#325227" transform="translate(169,367)"/>
<path d="M0 0 C2.4375 0.0625 2.4375 0.0625 5 1 C14.95933709 14.97801697 12.7994028 39.77769167 11 56 C7.98968256 56.93423645 7.13349732 57.04449911 4 56 C2.515 56.495 2.515 56.495 1 57 C1.0407666 56.21987549 1.0815332 55.43975098 1.12353516 54.63598633 C1.30425963 51.02869383 1.46471401 47.42075623 1.625 43.8125 C1.68945312 42.58595703 1.75390625 41.35941406 1.8203125 40.09570312 C2.29064727 28.95464819 1.2371143 18.65691364 -2.51171875 8.12109375 C-3.07720915 5.66460343 -2.89588216 4.34117272 -2 2 C-1.34 1.34 -0.68 0.68 0 0 Z " fill="#545746" transform="translate(378,22)"/>
<path d="M0 0 C0.99 0 1.98 0 3 0 C4.28317892 3.84953676 4.06643637 6.94738135 4 11 C4.9075 11.268125 5.815 11.53625 6.75 11.8125 C9.78407763 12.92110529 11.76910132 13.68329753 14 16 C14.25 18.6875 14.25 18.6875 14 21 C12.68 21.33 11.36 21.66 10 22 C10 22.66 10 23.32 10 24 C9.34 24.33 8.68 24.66 8 25 C8 28.63 8 32.26 8 36 C3 37 3 37 -0.1875 36.4375 C-1.115625 36.293125 -2.04375 36.14875 -3 36 C-5.6855594 38.6855594 -6.06049974 41.37621328 -7 45 C-7.66 45 -8.32 45 -9 45 C-9 45.66 -9 46.32 -9 47 C-10.32 46.34 -11.64 45.68 -13 45 C-13.78509961 34.06094542 -13.78509961 34.06094542 -10.6875 29.875 C-5.13333333 26 -5.13333333 26 -2 26 C-1.97287934 24.56260487 -1.95354933 23.12506137 -1.9375 21.6875 C-1.92589844 20.88699219 -1.91429687 20.08648437 -1.90234375 19.26171875 C-1.90342145 16.83138666 -1.90342145 16.83138666 -3 14 C-3.42639403 9.62126129 -3.43437225 6.01353524 -1.6875 1.9375 C-1.130625 1.298125 -0.57375 0.65875 0 0 Z " fill="#628258" transform="translate(142,131)"/>
<path d="M0 0 C15.64973013 10.19052194 25.12079522 24.72865145 30.5 42.4375 C30.75539551 43.27780762 31.01079102 44.11811523 31.27392578 44.98388672 C32.64397243 49.81419173 33.27011401 53.98263235 33 59 C31 59 29 59 27 59 C26.69707031 57.7934375 26.39414062 56.586875 26.08203125 55.34375 C23.46795163 45.24279451 20.97894631 37.41778182 13.9375 29.5625 C10.49839288 25.70572354 7 20.3245087 7 15 C7.66 14.67 8.32 14.34 9 14 C8.28254644 11.53770003 8.28254644 11.53770003 7 9 C5.67532254 8.3162955 4.34136367 7.65035814 3 7 C0 2.71428571 0 2.71428571 0 0 Z " fill="#58754E" transform="translate(257,87)"/>
<path d="M0 0 C1.32 0 2.64 0 4 0 C4.433125 1.0725 4.86625 2.145 5.3125 3.25 C6.2793379 5.55199501 7.06009623 7.07122516 8.6875 9 C10.79400471 12.20991194 10.55669077 14.22687364 10 18 C8.56124941 20.35621474 6.96306843 22.55116288 5.34765625 24.7890625 C3.39469533 27.99305056 3.34409688 30.35609377 4 34 C4.495 34.495 4.99 34.99 5.5 35.5 C7 37 7 37 7.25 40.5625 C7 44 7 44 6 46 C3.6875 45.9375 3.6875 45.9375 1 45 C-0.5625 41.75 -0.5625 41.75 -1.2421875 39.83203125 C-2.00010301 37.73241873 -2.00010301 37.73241873 -4.1875 35.4375 C-6 33 -6 33 -6.4375 29.9375 C-6 27 -6 27 -4.4375 24.9375 C-2.71000517 23.04881634 -2.71000517 23.04881634 -3.1875 20.375 C-3.85676551 17.84979635 -3.85676551 17.84979635 -6 16 C-5.67028521 12.70285207 -5.3773161 11.3773161 -3 9 C-2.36317578 7.06565395 -2.36317578 7.06565395 -1.9375 4.9375 C-1.09722222 1.09722222 -1.09722222 1.09722222 0 0 Z " fill="#618057" transform="translate(258,251)"/>
<path d="M0 0 C0.99 0.33 1.98 0.66 3 1 C2.37988438 4.26107863 1.23007992 6.36983528 -0.6875 9.0625 C-4.80769283 15.08053822 -8.33275055 21.39463145 -11.39453125 28.015625 C-14.83625728 35.41106936 -18.92475325 41.48020438 -25 47 C-26.485 47.495 -26.485 47.495 -28 48 C-28.74609375 46.265625 -28.74609375 46.265625 -29 44 C-27.41015625 41.984375 -27.41015625 41.984375 -25.0625 39.75 C-19.43708562 33.83677372 -16.40650789 27.26897502 -12.94970703 19.95117188 C-9.44356178 12.74780097 -5.42129774 5.91414299 0 0 Z " fill="#849A60" transform="translate(299,178)"/>
<path d="M0 0 C0.99 0 1.98 0 3 0 C2.706999 5.86001992 -0.03429151 9.85546646 -4 14 C-4.66 14 -5.32 14 -6 14 C-6.26941406 14.58523438 -6.53882813 15.17046875 -6.81640625 15.7734375 C-11.14188877 23.91048383 -19.19287974 29.99299333 -26 36 C-26.99 35.67 -27.98 35.34 -29 35 C-28.45912682 31.21388773 -26.88277668 29.44599233 -24 27 C-23.34 27 -22.68 27 -22 27 C-22 26.34 -22 25.68 -22 25 C-20.49609375 23.58984375 -20.49609375 23.58984375 -18.4375 21.9375 C-13.10177366 17.40025383 -9.23333356 12.04713626 -5.11328125 6.42578125 C-4.49839844 5.60464844 -3.88351563 4.78351563 -3.25 3.9375 C-2.69828125 3.18339844 -2.1465625 2.42929687 -1.578125 1.65234375 C-1.05734375 1.10707031 -0.5365625 0.56179688 0 0 Z " fill="#84995F" transform="translate(153,357)"/>
<path d="M0 0 C2 3 2 3 3 5 C2.67 5.66 2.34 6.32 2 7 C3.98 6.67 5.96 6.34 8 6 C6.47379196 10.1589169 3.46451578 12.24149447 0 14.75 C-0.81984375 15.36681641 -0.81984375 15.36681641 -1.65625 15.99609375 C-5.72799003 19 -5.72799003 19 -8 19 C-8 19.66 -8 20.32 -8 21 C-8.66 20.67 -9.32 20.34 -10 20 C-10.40729228 17.67843403 -10.74438677 15.3431213 -11 13 C-12.65 13.33 -14.3 13.66 -16 14 C-13.19195732 11.03595495 -10.81684226 8.55500981 -7 7 C-7 6.34 -7 5.68 -7 5 C-5.46875 3.7109375 -5.46875 3.7109375 -3.5 2.375 C-2.8503125 1.92898437 -2.200625 1.48296875 -1.53125 1.0234375 C-0.77328125 0.51683594 -0.77328125 0.51683594 0 0 Z " fill="#4B4E3C" transform="translate(344,131)"/>
<path d="M0 0 C0 0.99 0 1.98 0 3 C-1.546875 4.40234375 -1.546875 4.40234375 -3.75 5.9375 C-12.55127493 12.51060407 -20.75841829 20.26563398 -26 30 C-27.32 29.67 -28.64 29.34 -30 29 C-29.4739075 25.21213403 -28.61896089 22.82847776 -26 20 C-25.34 20 -24.68 20 -24 20 C-23.814375 19.319375 -23.62875 18.63875 -23.4375 17.9375 C-19.73665396 10.37490157 -8.52923625 0 0 0 Z " fill="#829760" transform="translate(255,247)"/>
<path d="M0 0 C0.99 0.33 1.98 0.66 3 1 C5.14255793 0.61067144 5.14255793 0.61067144 7 0 C7.3125 2.75 7.3125 2.75 7 6 C4.875 7.875 4.875 7.875 2 10 C-0.12534357 12.57828564 -2.07276155 15.27140123 -4 18 C-3.34 18.99 -2.68 19.98 -2 21 C-2.66 21.33 -3.32 21.66 -4 22 C-4 21.34 -4 20.68 -4 20 C-4.763125 20.103125 -5.52625 20.20625 -6.3125 20.3125 C-7.199375 20.209375 -8.08625 20.10625 -9 20 C-10.8125 17.5 -10.8125 17.5 -12 15 C-11.57847656 14.54109375 -11.15695312 14.0821875 -10.72265625 13.609375 C-9.90087891 12.68898437 -9.90087891 12.68898437 -9.0625 11.75 C-8.51722656 11.14671875 -7.97195313 10.5434375 -7.41015625 9.921875 C-5.93787201 7.91532695 -5.42470811 6.42997551 -5 4 C-4.360625 3.896875 -3.72125 3.79375 -3.0625 3.6875 C-2.381875 3.460625 -1.70125 3.23375 -1 3 C-0.67 2.01 -0.34 1.02 0 0 Z " fill="#494D38" transform="translate(314,158)"/>
<path d="M0 0 C-0.32412372 3.02515469 -0.89828652 3.91241339 -3.25 5.9375 C-4.1575 6.618125 -5.065 7.29875 -6 8 C-7.71230248 9.61974559 -9.37163262 11.2958946 -11 13 C-11.63292969 13.66128906 -12.26585937 14.32257813 -12.91796875 15.00390625 C-17.52333396 19.97217078 -21.00800597 24.92612371 -24 31 C-24.33 31.66 -24.66 32.32 -25 33 C-25.99 33 -26.98 33 -28 33 C-27.43325598 24.12101033 -23.3060455 18.0735217 -17 12 C-16.15179688 11.14019531 -15.30359375 10.28039062 -14.4296875 9.39453125 C-13.58664063 8.54246094 -12.74359375 7.69039063 -11.875 6.8125 C-10.60269531 5.52279297 -10.60269531 5.52279297 -9.3046875 4.20703125 C-5.96635475 1.01015328 -4.7322855 0 0 0 Z " fill="#839A60" transform="translate(188,319)"/>
<path d="M0 0 C0.99 0.33 1.98 0.66 3 1 C2.42242224 5.22786917 0.97152 8.10251786 -1.3125 11.6875 C-2.20388672 13.11642578 -2.20388672 13.11642578 -3.11328125 14.57421875 C-5.04529911 17.05824172 -6.25703622 17.67093508 -9 19 C-10.07711832 20.89884913 -10.07711832 20.89884913 -11 23 C-12.5859375 24.95703125 -12.5859375 24.95703125 -14.375 26.8125 C-14.96023437 27.43769531 -15.54546875 28.06289063 -16.1484375 28.70703125 C-18 30 -18 30 -20.2265625 29.69921875 C-20.81179687 29.46847656 -21.39703125 29.23773438 -22 29 C-22 28.01 -22 27.02 -22 26 C-21.34 26 -20.68 26 -20 26 C-20 25.34 -20 24.68 -20 24 C-18.89524769 22.99458509 -17.73826757 22.04636172 -16.5625 21.125 C-9.68490899 15.29985174 -4.50448248 7.75850926 0 0 Z " fill="#84995F" transform="translate(218,283)"/>
<path d="M0 0 C2.169342 3.254013 3.0390053 6.00130718 4.125 9.75 C4.47820312 10.94109375 4.83140625 12.1321875 5.1953125 13.359375 C6.00618632 17.0279886 6.14398555 20.25637566 6 24 C4 24 2 24 0 24 C-3.63636364 11.27272727 -3.63636364 11.27272727 -1 6 C-0.34 6 0.32 6 1 6 C0.67 4.02 0.34 2.04 0 0 Z " fill="#68825F" transform="translate(284,122)"/>
<path d="M0 0 C3.36288668 1.34515467 4.04259978 2.72084951 5.5 6 C6.1875 9.3125 6.1875 9.3125 6.5 12 C3.5 13 3.5 13 0.3125 11.5625 C-0.615625 11.046875 -1.54375 10.53125 -2.5 10 C-2.83 10.66 -3.16 11.32 -3.5 12 C-3.91713515 10.56853622 -4.3080497 9.12941114 -4.6875 7.6875 C-4.90792969 6.88699219 -5.12835938 6.08648437 -5.35546875 5.26171875 C-5.5 3 -5.5 3 -4.20703125 1.20703125 C-2.5 0 -2.5 0 0 0 Z " fill="#616354" transform="translate(380.5,22)"/>
<path d="M0 0 C0.99 0 1.98 0 3 0 C2.61114778 5.31431373 0.85075668 9.31991397 -3 13 C-5.8125 13.4375 -5.8125 13.4375 -8 13 C-7.38416899 9.37159027 -5.86239708 7.13879117 -3.625 4.25 C-3.01914062 3.45078125 -2.41328125 2.6515625 -1.7890625 1.828125 C-0.90347656 0.92320312 -0.90347656 0.92320312 0 0 Z " fill="#81985E" transform="translate(266,228)"/>
<path d="M0 0 C2.475 0.495 2.475 0.495 5 1 C3.625 2.5 3.625 2.5 2 4 C1.34 4 0.68 4 0 4 C0 4.66 0 5.32 0 6 C-1.96147874 7.38938077 -3.96166576 8.7260411 -6 10 C-6 8.35 -6 6.7 -6 5 C-7.98 5.66 -9.96 6.32 -12 7 C-12.33 6.67 -12.66 6.34 -13 6 C-13.33 6.66 -13.66 7.32 -14 8 C-16.0625 8.625 -16.0625 8.625 -18 9 C-18 8.34 -18 7.68 -18 7 C-17.34 7 -16.68 7 -16 7 C-16 6.34 -16 5.68 -16 5 C-15.34 5 -14.68 5 -14 5 C-14 4.34 -14 3.68 -14 3 C-13.01 2.67 -12.02 2.34 -11 2 C-11 2.66 -11 3.32 -11 4 C-8.36 3.34 -5.72 2.68 -3 2 C-2.67 2.66 -2.34 3.32 -2 4 C-1.34 2.68 -0.68 1.36 0 0 Z " fill="#6B6E5F" transform="translate(327,153)"/>
<path d="M0 0 C0.66 0.33 1.32 0.66 2 1 C1.360625 1.78375 0.72125 2.5675 0.0625 3.375 C-1.98142313 5.79539281 -1.98142313 5.79539281 -3 8 C-3.99 8 -4.98 8 -6 8 C-6.268125 8.598125 -6.53625 9.19625 -6.8125 9.8125 C-8.00987475 12.01819033 -9.04478984 13.43583187 -11 15 C-11.99 15 -12.98 15 -14 15 C-14.33 15.99 -14.66 16.98 -15 18 C-15.66 17.67 -16.32 17.34 -17 17 C-16.01 15.515 -16.01 15.515 -15 14 C-14.34 14 -13.68 14 -13 14 C-13 13.34 -13 12.68 -13 12 C-12.34 12 -11.68 12 -11 12 C-10.76539063 11.42765625 -10.53078125 10.8553125 -10.2890625 10.265625 C-8.70593415 7.48315699 -6.8008475 5.82929786 -4.375 3.75 C-3.55773437 3.04359375 -2.74046875 2.3371875 -1.8984375 1.609375 C-1.27195313 1.07828125 -0.64546875 0.5471875 0 0 Z " fill="#889983" transform="translate(164,94)"/>
<path d="M0 0 C0.99 0.495 0.99 0.495 2 1 C2.99 1 3.98 1 5 1 C5.66 1.66 6.32 2.32 7 3 C6.67 3.99 6.34 4.98 6 6 C6.66 6.33 7.32 6.66 8 7 C7.360625 7.350625 6.72125 7.70125 6.0625 8.0625 C3.17836168 10.77184206 3.2899178 13.15858911 3 17 C2.67 17 2.34 17 2 17 C1.34 11.39 0.68 5.78 0 0 Z " fill="#646655" transform="translate(378,34)"/>
<path d="M0 0 C0.66 0.33 1.32 0.66 2 1 C1.4409112 4.24271506 0.5867822 5.93057424 -2 8 C-2.66 8 -3.32 8 -4 8 C-4 8.66 -4 9.32 -4 10 C-4.66 9.67 -5.32 9.34 -6 9 C-6 7.33333333 -6 5.66666667 -6 4 C-4.03852126 2.61061923 -2.03833424 1.2739589 0 0 Z " fill="#585B4C" transform="translate(361,125)"/>
<path d="M0 0 C2 3.75 2 3.75 2 6 C-2.38461538 9 -2.38461538 9 -5 9 C-5.66 10.32 -6.32 11.64 -7 13 C-7.66 12.34 -8.32 11.68 -9 11 C-8.67 10.34 -8.34 9.68 -8 9 C-7.34 9 -6.68 9 -6 9 C-5.7525 8.443125 -5.505 7.88625 -5.25 7.3125 C-3.78393985 4.60028873 -1.97010529 2.36412635 0 0 Z " fill="#686A5D" transform="translate(364,110)"/>
<path d="M0 0 C1.65 0 3.3 0 5 0 C3.47987323 5.40489519 -0.27385218 8.98492628 -4 13 C-4.68359375 11.203125 -4.68359375 11.203125 -5 9 C-3.78515625 7.296875 -3.78515625 7.296875 -2.0625 5.75 C-1.49660156 5.22921875 -0.93070312 4.7084375 -0.34765625 4.171875 C0.09707031 3.78515625 0.54179687 3.3984375 1 3 C0.67 2.01 0.34 1.02 0 0 Z " fill="#54654B" transform="translate(396,347)"/>
<path d="M0 0 C1.42944945 2.35438733 2.08661261 3.48032433 1.625 6.25 C1.41875 6.8275 1.2125 7.405 1 8 C-1.91517292 6.92598892 -3.77810176 6.22189824 -6 4 C-5.67 3.01 -5.34 2.02 -5 1 C-3 0 -3 0 0 0 Z " fill="#3E412D" transform="translate(333,144)"/>
<path d="M0 0 C3 1 3 1 4 2.6875 C4 6.49449685 1.53384038 8.28075667 -1 11 C-1.33 10.01 -1.66 9.02 -2 8 C-2.66 7.67 -3.32 7.34 -4 7 C-4 7.66 -4 8.32 -4 9 C-4.99 8.67 -5.98 8.34 -7 8 C-6.34 7.34 -5.68 6.68 -5 6 C-3.68 6 -2.36 6 -1 6 C-0.67 4.02 -0.34 2.04 0 0 Z " fill="#3F422E" transform="translate(355,122)"/>
<path d="M0 0 C11.13392857 7.25 11.13392857 7.25 13 12 C9 12 9 12 6.875 10.0625 C6.25625 9.381875 5.6375 8.70125 5 8 C4.34 7.67 3.68 7.34 3 7 C0 2.5 0 2.5 0 0 Z " fill="#788C71" transform="translate(257,87)"/>
<path d="M0 0 C0.33 1.32 0.66 2.64 1 4 C-2.06117568 6.62386487 -2.73173127 7 -7 7 C-7 5.68 -7 4.36 -7 3 C-4.49515403 0.58152803 -3.53986194 0 0 0 Z " fill="#7D955C" transform="translate(120,399)"/>
<path d="M0 0 C2 1 2 1 3 3 C2.0625 5.625 2.0625 5.625 1 8 C-1.31 7.67 -3.62 7.34 -6 7 C-5.8125 5.1875 -5.8125 5.1875 -5 3 C-2.5625 1.1875 -2.5625 1.1875 0 0 Z " fill="#41442F" transform="translate(364,116)"/>
<path d="M0 0 C0.598125 0.226875 1.19625 0.45375 1.8125 0.6875 C1.1525 2.0075 0.4925 3.3275 -0.1875 4.6875 C-0.8475 4.6875 -1.5075 4.6875 -2.1875 4.6875 C-2.1875 5.3475 -2.1875 6.0075 -2.1875 6.6875 C-3.5075 6.6875 -4.8275 6.6875 -6.1875 6.6875 C-5.78066505 4.32785727 -5.28935661 2.82815912 -3.875 0.875 C-2.1875 -0.3125 -2.1875 -0.3125 0 0 Z " fill="#839A60" transform="translate(103.1875,417.3125)"/>
<path d="M0 0 C3.63 0 7.26 0 11 0 C11 0.33 11 0.66 11 1 C10.19175781 1.19335938 9.38351562 1.38671875 8.55078125 1.5859375 C7.48214844 1.84632813 6.41351563 2.10671875 5.3125 2.375 C4.25675781 2.63023437 3.20101563 2.88546875 2.11328125 3.1484375 C-0.70406766 3.91905489 -3.31668325 4.85498543 -6 6 C-5.67 4.68 -5.34 3.36 -5 2 C-3.35 2 -1.7 2 0 2 C0 1.34 0 0.68 0 0 Z " fill="#6F7F67" transform="translate(314,412)"/>
<path d="M0 0 C0.99 0 1.98 0 3 0 C2.835 0.78375 2.67 1.5675 2.5 2.375 C1.9376293 4.88208039 1.9376293 4.88208039 2 7 C2 7.99 2 8.98 2 10 C1.67 9.34 1.34 8.68 1 8 C-0.65 8 -2.3 8 -4 8 C-3.505 7.401875 -3.01 6.80375 -2.5 6.1875 C-0.71723582 4.02970006 -0.71723582 4.02970006 -1 1 C-0.67 0.67 -0.34 0.34 0 0 Z " fill="#5D6553" transform="translate(309,170)"/>
<path d="M0 0 C2 3 2 3 1.625 5.5 C1.41875 6.325 1.2125 7.15 1 8 C1 8.99 1 9.98 1 11 C-0.98 11.99 -0.98 11.99 -3 13 C-2.45144652 8.428721 -1.58255197 4.32564205 0 0 Z " fill="#72886B" transform="translate(122,161)"/>
<path d="M0 0 C0.66 0.33 1.32 0.66 2 1 C1.42676569 4.86933162 -0.38953552 7.15222057 -3 10 C-3.66 10 -4.32 10 -5 10 C-4.49701212 5.59885603 -2.91227269 3.28804981 0 0 Z " fill="#5F6155" transform="translate(307,162)"/>
<path d="M0 0 C0 1.65 0 3.3 0 5 C-1.98 5.66 -3.96 6.32 -6 7 C-6.66 6.01 -7.32 5.02 -8 4 C-3.375 0 -3.375 0 0 0 Z " fill="#414430" transform="translate(321,158)"/>
<path d="M0 0 C0.33 0 0.66 0 1 0 C1.92817192 3.62830843 2.26901295 5.41073355 0.6875 8.875 C0.130625 9.57625 -0.42625 10.2775 -1 11 C-1.66 11 -2.32 11 -3 11 C-3.33 12.32 -3.66 13.64 -4 15 C-5 13 -5 13 -4.00390625 9.9609375 C-3.52824219 8.77757812 -3.05257812 7.59421875 -2.5625 6.375 C-2.08941406 5.18648437 -1.61632812 3.99796875 -1.12890625 2.7734375 C-0.75636719 1.85820312 -0.38382813 0.94296875 0 0 Z " fill="#889C81" transform="translate(130,138)"/>
<path d="M0 0 C2.16874252 0.50603992 3.99967627 0.99983813 6 2 C6.66 1.34 7.32 0.68 8 0 C8.33 2.31 8.66 4.62 9 7 C8.01 7.33 7.02 7.66 6 8 C5.67 6.68 5.34 5.36 5 4 C3.68 4.33 2.36 4.66 1 5 C0.67 3.35 0.34 1.7 0 0 Z " fill="#404332" transform="translate(378,32)"/>
<path d="M0 0 C0.99 0.33 1.98 0.66 3 1 C2.67 1.66 2.34 2.32 2 3 C2.66 3 3.32 3 4 3 C3.67 3.99 3.34 4.98 3 6 C1.35 6.33 -0.3 6.66 -2 7 C-2.33 5.35 -2.66 3.7 -3 2 C-2.01 1.34 -1.02 0.68 0 0 Z " fill="#48623F" transform="translate(422,273)"/>
<path d="M0 0 C0.33 1.32 0.66 2.64 1 4 C1.99 3.34 2.98 2.68 4 2 C3.49396008 4.16874252 3.00016187 5.99967627 2 8 C1.34 8 0.68 8 0 8 C-0.33 9.32 -0.66 10.64 -1 12 C-1.66 12 -2.32 12 -3 12 C-2.68950274 10.56206608 -2.3765224 9.1246682 -2.0625 7.6875 C-1.88847656 6.88699219 -1.71445313 6.08648437 -1.53515625 5.26171875 C-1 3 -1 3 0 0 Z " fill="#7B9475" transform="translate(83,261)"/>
<path d="M0 0 C2.6331038 3.94965569 3.12274339 6.54875885 3.0625 11.1875 C3.05347656 12.08855469 3.04445313 12.98960937 3.03515625 13.91796875 C3.02355469 14.60503906 3.01195312 15.29210937 3 16 C2.67 16 2.34 16 2 16 C1.96261719 15.37351563 1.92523438 14.74703125 1.88671875 14.1015625 C1.82097656 13.28429687 1.75523437 12.46703125 1.6875 11.625 C1.60048828 10.40683594 1.60048828 10.40683594 1.51171875 9.1640625 C1.17009472 6.62078662 1.17009472 6.62078662 -2 5 C-2.66 4.67 -3.32 4.34 -4 4 C-2.68 2.68 -1.36 1.36 0 0 Z " fill="#667962" transform="translate(422,227)"/>
<path d="M0 0 C2.05883923 4.11767846 2.96165128 7.54993405 4 12 C2.02 11.01 0.04 10.02 -2 9 C-1.34 6.03 -0.68 3.06 0 0 Z " fill="#798E71" transform="translate(291,150)"/>
<path d="M0 0 C0.33 0.99 0.66 1.98 1 3 C-0.28548409 4.33929505 -1.57858155 5.67128643 -2.875 7 C-3.59429687 7.7425 -4.31359375 8.485 -5.0546875 9.25 C-7 11 -7 11 -9 11 C-9 10.34 -9 9.68 -9 9 C-9.66 8.67 -10.32 8.34 -11 8 C-9.9275 7.608125 -8.855 7.21625 -7.75 6.8125 C-4.10859135 5.27616532 -2.23052521 3.30117731 0 0 Z " fill="#5D7745" transform="translate(239,402)"/>
<path d="M0 0 C1.0625 1.875 1.0625 1.875 2 4 C1.67 4.66 1.34 5.32 1 6 C1.185625 6.66 1.37125 7.32 1.5625 8 C1.706875 8.66 1.85125 9.32 2 10 C1.34 10.66 0.68 11.32 0 12 C-2.32590854 8.36576791 -2.16265833 5.22911669 -2 1 C-1.34 0.67 -0.68 0.34 0 0 Z " fill="#869880" transform="translate(76,389)"/>
<path d="M0 0 C1.125 3.75 1.125 3.75 0 6 C-3.0625 6.625 -3.0625 6.625 -6 7 C-6 7.66 -6 8.32 -6 9 C-6.99 8.67 -7.98 8.34 -9 8 C-8.34 8 -7.68 8 -7 8 C-7 7.34 -7 6.68 -7 6 C-5.46875 4.4921875 -5.46875 4.4921875 -3.5 2.875 C-2.8503125 2.33617188 -2.200625 1.79734375 -1.53125 1.2421875 C-0.77328125 0.62730469 -0.77328125 0.62730469 0 0 Z " fill="#787970" transform="translate(354,122)"/>
<path d="M0 0 C1.32 0 2.64 0 4 0 C3.67 1.32 3.34 2.64 3 4 C-0.75 5.125 -0.75 5.125 -3 4 C-1.75 2 -1.75 2 0 0 Z " fill="#879D63" transform="translate(184,319)"/>
<path d="M0 0 C0.66 0.33 1.32 0.66 2 1 C2 1.99 2 2.98 2 4 C3.98 3.67 5.96 3.34 8 3 C8.33 3.99 8.66 4.98 9 6 C1.25 5.125 1.25 5.125 -1 4 C-0.67 2.68 -0.34 1.36 0 0 Z " fill="#53684C" transform="translate(400,275)"/>
<path d="M0 0 C1.65 0.33 3.3 0.66 5 1 C3.625 2.5 3.625 2.5 2 4 C1.34 4 0.68 4 0 4 C0 4.66 0 5.32 0 6 C-1.98 6.99 -1.98 6.99 -4 8 C-4 6.02 -4 4.04 -4 2 C-3.34 2.66 -2.68 3.32 -2 4 C-1.34 2.68 -0.68 1.36 0 0 Z " fill="#727467" transform="translate(327,153)"/>
<path d="M0 0 C0.66 0 1.32 0 2 0 C1.47731534 2.76276177 0.89130413 5.3260876 0 8 C-0.66 8 -1.32 8 -2 8 C-2 8.99 -2 9.98 -2 11 C-2.66 11 -3.32 11 -4 11 C-3.52269162 9.5410574 -3.04308958 8.08286504 -2.5625 6.625 C-2.29566406 5.81289063 -2.02882813 5.00078125 -1.75390625 4.1640625 C-1 2 -1 2 0 0 Z " fill="#5D7845" transform="translate(340,353)"/>
<path d="M0 0 C0.556875 0.226875 1.11375 0.45375 1.6875 0.6875 C-4.0625 4.6875 -4.0625 4.6875 -6.3125 4.6875 C-6.3125 5.3475 -6.3125 6.0075 -6.3125 6.6875 C-6.9725 6.3575 -7.6325 6.0275 -8.3125 5.6875 C-7.3125 2.6875 -7.3125 2.6875 -5 0.9375 C-2.3125 -0.3125 -2.3125 -0.3125 0 0 Z " fill="#828475" transform="translate(342.3125,145.3125)"/>
<path d="M0 0 C1.60031344 3.20062687 0.03173691 5.72271806 -1 9 C-1.99 8.67 -2.98 8.34 -4 8 C-4 8.66 -4 9.32 -4 10 C-4.66 9.67 -5.32 9.34 -6 9 C-4.02 6.03 -2.04 3.06 0 0 Z " fill="#8B9B85" transform="translate(144,115)"/>
<path d="M0 0 C0.66 0.33 1.32 0.66 2 1 C0.7260411 3.03833424 -0.61061923 5.03852126 -2 7 C-2.66 7 -3.32 7 -4 7 C-4.33 7.66 -4.66 8.32 -5 9 C-4.125 3.25 -4.125 3.25 -3 1 C-2.01 0.67 -1.02 0.34 0 0 Z " fill="#607859" transform="translate(149,111)"/>
<path d="M0 0 C0.33 0 0.66 0 1 0 C1 1.65 1 3.3 1 5 C1.99 5 2.98 5 4 5 C4.33 6.98 4.66 8.96 5 11 C1.125 9.125 1.125 9.125 0 8 C-0.14115161 5.32941149 -0.04247107 2.67567762 0 0 Z " fill="#83977C" transform="translate(87,422)"/>
<path d="M0 0 C-0.33 0.99 -0.66 1.98 -1 3 C-2.65 2.67 -4.3 2.34 -6 2 C-6.33 3.65 -6.66 5.3 -7 7 C-7.33 7 -7.66 7 -8 7 C-8.1875 4.625 -8.1875 4.625 -8 2 C-4.77208445 -0.1519437 -3.71599191 -0.20086443 0 0 Z " fill="#607A46" transform="translate(370,225)"/>
<path d="M0 0 C0.99 0.66 1.98 1.32 3 2 C1.35 4.97 -0.3 7.94 -2 11 C-2.66 10.67 -3.32 10.34 -4 10 C-4 9.01 -4 8.02 -4 7 C-3.01 7 -2.02 7 -1 7 C-0.67 4.69 -0.34 2.38 0 0 Z " fill="#7E7F76" transform="translate(372,111)"/>
<path d="M0 0 C0.33 0 0.66 0 1 0 C1.19551338 1.60320974 1.38111983 3.20762986 1.5625 4.8125 C1.66691406 5.70582031 1.77132812 6.59914063 1.87890625 7.51953125 C2 10 2 10 1 13 C0.34 13 -0.32 13 -1 13 C-0.67 8.71 -0.34 4.42 0 0 Z " fill="#8B9D85" transform="translate(70,311)"/>
<path d="M0 0 C0.8353125 0.556875 0.8353125 0.556875 1.6875 1.125 C0.375 2.625 0.375 2.625 -1.3125 4.125 C-2.3025 4.125 -3.2925 4.125 -4.3125 4.125 C-4.3125 3.465 -4.3125 2.805 -4.3125 2.125 C-5.3025 1.795 -6.2925 1.465 -7.3125 1.125 C-2.88173077 -1.09038462 -2.88173077 -1.09038462 0 0 Z " fill="#6E8567" transform="translate(189.3125,81.875)"/>
<path d="M0 0 C2.56687367 3.8503105 1.83288724 5.58569763 1 10 C0.01 10 -0.98 10 -2 10 C-1.67 9.34 -1.34 8.68 -1 8 C-1 7.01 -1 6.02 -1 5 C-1 2 -1 2 0 0 Z " fill="#617A5A" transform="translate(124,155)"/>
<path d="M0 0 C0.99 0.33 1.98 0.66 3 1 C3 1.66 3 2.32 3 3 C4.65 3 6.3 3 8 3 C8 3.33 8 3.66 8 4 C4.7 4.33 1.4 4.66 -2 5 C-1.34 3.35 -0.68 1.7 0 0 Z " fill="#7E9179" transform="translate(370,258)"/>
<path d="M0 0 C0.66 1.32 1.32 2.64 2 4 C1.34 4 0.68 4 0 4 C0.66 5.32 1.32 6.64 2 8 C1.34 8.66 0.68 9.32 0 10 C0 9.34 0 8.68 0 8 C-0.99 8.33 -1.98 8.66 -3 9 C-2.01 6.03 -1.02 3.06 0 0 Z " fill="#7D945B" transform="translate(284,201)"/>
<path d="M0 0 C0.66 0.33 1.32 0.66 2 1 C1.67 2.32 1.34 3.64 1 5 C1.99 5.33 2.98 5.66 4 6 C3.01 7.485 3.01 7.485 2 9 C0.68 6.36 -0.64 3.72 -2 1 C-1.34 0.67 -0.68 0.34 0 0 Z " fill="#3F422F" transform="translate(323,149)"/>
<path d="M0 0 C0.66 0 1.32 0 2 0 C2 1.65 2 3.3 2 5 C2.66 5 3.32 5 4 5 C4.33 5.99 4.66 6.98 5 8 C4.34 9.32 3.68 10.64 3 12 C2.01 8.04 1.02 4.08 0 0 Z " fill="#84997F" transform="translate(73,360)"/>
<path d="M0 0 C2 3 2 3 2 5 C1.34 5 0.68 5 0 5 C0 5.99 0 6.98 0 8 C0.66 8.33 1.32 8.66 2 9 C0.02 9.99 0.02 9.99 -2 11 C-1.34 7.37 -0.68 3.74 0 0 Z " fill="#899F85" transform="translate(114,190)"/>
<path d="M0 0 C0.66 0.33 1.32 0.66 2 1 C1.67 2.32 1.34 3.64 1 5 C-0.98 5 -2.96 5 -5 5 C-3.35 3.35 -1.7 1.7 0 0 Z " fill="#7D7E73" transform="translate(326,145)"/>
<path d="M0 0 C-0.66 1.32 -1.32 2.64 -2 4 C-3.32 4 -4.64 4 -6 4 C-6.33 3.34 -6.66 2.68 -7 2 C-2.25 0 -2.25 0 0 0 Z " fill="#5C5E52" transform="translate(352,137)"/>
<path d="M0 0 C0.66 1.32 1.32 2.64 2 4 C0.625 6 0.625 6 -1 8 C-1.66 8 -2.32 8 -3 8 C-1.125 2.25 -1.125 2.25 0 0 Z " fill="#84967E" transform="translate(134,130)"/>
<path d="M0 0 C2.97 1.98 2.97 1.98 6 4 C5.67 5.32 5.34 6.64 5 8 C2.2175651 6.60878255 1.44789935 4.69835788 0 2 C0 1.34 0 0.68 0 0 Z " fill="#7E9178" transform="translate(257,87)"/>
<path d="M0 0 C1.32 0.33 2.64 0.66 4 1 C3.67 2.98 3.34 4.96 3 7 C0 3.375 0 3.375 0 0 Z " fill="#6C7E65" transform="translate(399,340)"/>
<path d="M0 0 C0.66 0.99 1.32 1.98 2 3 C1.360625 3.268125 0.72125 3.53625 0.0625 3.8125 C-2.33131686 4.88667752 -2.33131686 4.88667752 -3 8 C-3.66 7.67 -4.32 7.34 -5 7 C-3.35 4.69 -1.7 2.38 0 0 Z " fill="#84957D" transform="translate(100,224)"/>
<path d="M0 0 C0.99 0.99 1.98 1.98 3 3 C2.01 4.485 2.01 4.485 1 6 C0.01 5.67 -0.98 5.34 -2 5 C-2 3.68 -2 2.36 -2 1 C-1.34 0.67 -0.68 0.34 0 0 Z " fill="#51654A" transform="translate(402,200)"/>
<path d="M0 0 C1.65 0 3.3 0 5 0 C3.25 4.875 3.25 4.875 1 6 C0.67 4.02 0.34 2.04 0 0 Z " fill="#6B7D66" transform="translate(396,347)"/>
<path d="M0 0 C1.32 0 2.64 0 4 0 C3.67 1.32 3.34 2.64 3 4 C1.68 4.33 0.36 4.66 -1 5 C-0.67 3.35 -0.34 1.7 0 0 Z " fill="#899E64" transform="translate(228,269)"/>
<path d="M0 0 C0 3 0 3 -2 6 C-4.625 6.6875 -4.625 6.6875 -7 7 C-6.67 6.34 -6.34 5.68 -6 5 C-5.34 5 -4.68 5 -4 5 C-4 4.34 -4 3.68 -4 3 C-2 1.375 -2 1.375 0 0 Z " fill="#92938B" transform="translate(341,133)"/>
<path d="M0 0 C0.99 0.33 1.98 0.66 3 1 C3 2.32 3 3.64 3 5 C1.68 4.67 0.36 4.34 -1 4 C-0.67 2.68 -0.34 1.36 0 0 Z " fill="#506B47" transform="translate(284,130)"/>
</svg>
